<mxfile host="65bd71144e" pages="3">
    <diagram name="Ebay" id="N3R0yRtl69pYPH-y9iuo">
        <mxGraphModel dx="2118" dy="6620" grid="1" gridSize="10" guides="1" tooltips="1" connect="1" arrows="1" fold="1" page="1" pageScale="1" pageWidth="5000" pageHeight="5000" background="#ffffff" math="0" shadow="1">
            <root>
                <mxCell id="ebvVTvDQEhlDr3C3y-I--0"/>
                <mxCell id="ebvVTvDQEhlDr3C3y-I--1" parent="ebvVTvDQEhlDr3C3y-I--0"/>
                <mxCell id="YTVG2GfnRO3AYg1TEgZi-3" value="Users" style="strokeWidth=2;whiteSpace=wrap;html=1;align=center;fontSize=15;fontFamily=Helvetica;strokeColor=#b85450;fillColor=#f8cecc;fontStyle=0;rounded=1;" parent="ebvVTvDQEhlDr3C3y-I--1" vertex="1">
                    <mxGeometry x="450" y="-4870" width="100" height="40" as="geometry"/>
                </mxCell>
                <mxCell id="YTVG2GfnRO3AYg1TEgZi-6" style="orthogonalLoop=1;jettySize=auto;html=1;exitX=0.5;exitY=1;exitDx=0;exitDy=0;entryX=0;entryY=0;entryDx=0;entryDy=0;fontSize=10;endArrow=none;endFill=0;" parent="ebvVTvDQEhlDr3C3y-I--1" source="YTVG2GfnRO3AYg1TEgZi-13" target="YTVG2GfnRO3AYg1TEgZi-3" edge="1">
                    <mxGeometry relative="1" as="geometry">
                        <mxPoint x="460" y="-4890" as="sourcePoint"/>
                    </mxGeometry>
                </mxCell>
                <mxCell id="YTVG2GfnRO3AYg1TEgZi-13" value="&lt;font style=&quot;font-size: 16px&quot;&gt;User ID&lt;/font&gt;" style="ellipse;whiteSpace=wrap;html=1;align=center;fontStyle=4;strokeColor=#6c8ebf;fillColor=#dae8fc;fontSize=10;strokeWidth=2;perimeterSpacing=0;shadow=0;rounded=1;" parent="ebvVTvDQEhlDr3C3y-I--1" vertex="1">
                    <mxGeometry x="394" y="-4970" width="66" height="68" as="geometry"/>
                </mxCell>
                <mxCell id="YTVG2GfnRO3AYg1TEgZi-18" value="" style="edgeStyle=none;orthogonalLoop=1;jettySize=auto;html=1;endArrow=none;endFill=0;fontSize=10;" parent="ebvVTvDQEhlDr3C3y-I--1" source="YTVG2GfnRO3AYg1TEgZi-14" target="YTVG2GfnRO3AYg1TEgZi-3" edge="1">
                    <mxGeometry relative="1" as="geometry"/>
                </mxCell>
                <mxCell id="YTVG2GfnRO3AYg1TEgZi-14" value="&lt;font style=&quot;font-size: 16px&quot;&gt;Email&lt;/font&gt;" style="ellipse;whiteSpace=wrap;html=1;strokeColor=#6c8ebf;fillColor=#dae8fc;fontSize=10;strokeWidth=2;perimeterSpacing=0;shadow=0;rounded=1;" parent="ebvVTvDQEhlDr3C3y-I--1" vertex="1">
                    <mxGeometry x="480" y="-4970" width="70" height="70" as="geometry"/>
                </mxCell>
                <mxCell id="YTVG2GfnRO3AYg1TEgZi-21" style="edgeStyle=none;orthogonalLoop=1;jettySize=auto;html=1;endArrow=none;endFill=0;fontSize=10;entryX=1;entryY=0;entryDx=0;entryDy=0;" parent="ebvVTvDQEhlDr3C3y-I--1" source="YTVG2GfnRO3AYg1TEgZi-15" target="YTVG2GfnRO3AYg1TEgZi-3" edge="1">
                    <mxGeometry relative="1" as="geometry">
                        <mxPoint x="554" y="-4859" as="targetPoint"/>
                    </mxGeometry>
                </mxCell>
                <mxCell id="YTVG2GfnRO3AYg1TEgZi-15" value="&lt;span style=&quot;font-size: 14px&quot;&gt;Account&lt;br&gt;Creation&lt;br&gt;Date&lt;br&gt;&lt;/span&gt;" style="ellipse;whiteSpace=wrap;html=1;strokeColor=#6c8ebf;fillColor=#dae8fc;fontSize=10;strokeWidth=2;rounded=1;" parent="ebvVTvDQEhlDr3C3y-I--1" vertex="1">
                    <mxGeometry x="570" y="-4970" width="70" height="70" as="geometry"/>
                </mxCell>
                <mxCell id="YTVG2GfnRO3AYg1TEgZi-19" value="" style="edgeStyle=none;orthogonalLoop=1;jettySize=auto;html=1;endArrow=none;endFill=0;fontSize=10;" parent="ebvVTvDQEhlDr3C3y-I--1" source="YTVG2GfnRO3AYg1TEgZi-17" target="YTVG2GfnRO3AYg1TEgZi-3" edge="1">
                    <mxGeometry relative="1" as="geometry"/>
                </mxCell>
                <mxCell id="YTVG2GfnRO3AYg1TEgZi-17" value="&lt;font style=&quot;font-size: 14px&quot;&gt;Username&lt;/font&gt;" style="ellipse;whiteSpace=wrap;html=1;strokeColor=#6c8ebf;fillColor=#dae8fc;fontSize=10;strokeWidth=2;rounded=1;" parent="ebvVTvDQEhlDr3C3y-I--1" vertex="1">
                    <mxGeometry x="630" y="-4902" width="70" height="70" as="geometry"/>
                </mxCell>
                <mxCell id="YTVG2GfnRO3AYg1TEgZi-23" value="" style="edgeStyle=none;orthogonalLoop=1;jettySize=auto;html=1;endArrow=none;endFill=0;fontSize=10;" parent="ebvVTvDQEhlDr3C3y-I--1" source="YTVG2GfnRO3AYg1TEgZi-22" target="YTVG2GfnRO3AYg1TEgZi-3" edge="1">
                    <mxGeometry relative="1" as="geometry"/>
                </mxCell>
                <mxCell id="YTVG2GfnRO3AYg1TEgZi-22" value="&lt;font style=&quot;font-size: 14px&quot;&gt;Phone&lt;br&gt;#&lt;br&gt;&lt;/font&gt;" style="ellipse;whiteSpace=wrap;html=1;strokeColor=#6c8ebf;fillColor=#dae8fc;fontSize=10;strokeWidth=2;perimeterSpacing=0;shadow=0;rounded=1;" parent="ebvVTvDQEhlDr3C3y-I--1" vertex="1">
                    <mxGeometry x="324" y="-4940" width="70" height="70" as="geometry"/>
                </mxCell>
                <mxCell id="YTVG2GfnRO3AYg1TEgZi-26" value="" style="edgeStyle=none;orthogonalLoop=1;jettySize=auto;html=1;endArrow=none;endFill=0;fontSize=10;entryX=0;entryY=1;entryDx=0;entryDy=0;" parent="ebvVTvDQEhlDr3C3y-I--1" source="YTVG2GfnRO3AYg1TEgZi-24" target="YTVG2GfnRO3AYg1TEgZi-3" edge="1">
                    <mxGeometry relative="1" as="geometry">
                        <mxPoint x="444" y="-4833" as="targetPoint"/>
                    </mxGeometry>
                </mxCell>
                <mxCell id="YTVG2GfnRO3AYg1TEgZi-24" value="&lt;font style=&quot;font-size: 14px&quot;&gt;DOB&lt;/font&gt;" style="ellipse;whiteSpace=wrap;html=1;strokeColor=#6c8ebf;fillColor=#dae8fc;fontSize=10;strokeWidth=2;rounded=1;" parent="ebvVTvDQEhlDr3C3y-I--1" vertex="1">
                    <mxGeometry x="275" y="-4870" width="70" height="70" as="geometry"/>
                </mxCell>
                <mxCell id="YTVG2GfnRO3AYg1TEgZi-30" value="" style="edgeStyle=none;orthogonalLoop=1;jettySize=auto;html=1;endArrow=none;endFill=0;fontSize=10;" parent="ebvVTvDQEhlDr3C3y-I--1" source="YTVG2GfnRO3AYg1TEgZi-28" target="YTVG2GfnRO3AYg1TEgZi-3" edge="1">
                    <mxGeometry relative="1" as="geometry"/>
                </mxCell>
                <mxCell id="YTVG2GfnRO3AYg1TEgZi-28" value="&lt;b&gt;&lt;font style=&quot;font-size: 20px&quot;&gt;&lt;br&gt;ISA&lt;/font&gt;&lt;/b&gt;" style="triangle;whiteSpace=wrap;html=1;strokeColor=#6c8ebf;fontSize=10;direction=north;fillColor=#FFD966;strokeWidth=2;rounded=1;" parent="ebvVTvDQEhlDr3C3y-I--1" vertex="1">
                    <mxGeometry x="470" y="-4740" width="80" height="60" as="geometry"/>
                </mxCell>
                <mxCell id="YTVG2GfnRO3AYg1TEgZi-33" style="edgeStyle=none;orthogonalLoop=1;jettySize=auto;html=1;exitX=1;exitY=0;exitDx=0;exitDy=0;entryX=0;entryY=0.5;entryDx=0;entryDy=0;endArrow=none;endFill=0;fontSize=10;" parent="ebvVTvDQEhlDr3C3y-I--1" source="YTVG2GfnRO3AYg1TEgZi-31" target="YTVG2GfnRO3AYg1TEgZi-28" edge="1">
                    <mxGeometry relative="1" as="geometry"/>
                </mxCell>
                <mxCell id="ylnEmxaxOQNy4dpgVC_u-2" style="edgeStyle=none;orthogonalLoop=1;jettySize=auto;html=1;exitX=0.5;exitY=1;exitDx=0;exitDy=0;endArrow=none;endFill=0;fontSize=10;" parent="ebvVTvDQEhlDr3C3y-I--1" source="YTVG2GfnRO3AYg1TEgZi-31" target="ylnEmxaxOQNy4dpgVC_u-0" edge="1">
                    <mxGeometry relative="1" as="geometry"/>
                </mxCell>
                <mxCell id="64" style="edgeStyle=none;orthogonalLoop=1;jettySize=auto;html=1;exitX=0.75;exitY=1;exitDx=0;exitDy=0;entryX=0.5;entryY=0;entryDx=0;entryDy=0;endArrow=none;endFill=0;strokeColor=#000000;fillColor=#FFE45E;fontColor=#5AA9E6;" parent="ebvVTvDQEhlDr3C3y-I--1" source="YTVG2GfnRO3AYg1TEgZi-31" target="63" edge="1">
                    <mxGeometry relative="1" as="geometry"/>
                </mxCell>
                <mxCell id="86" style="edgeStyle=none;orthogonalLoop=1;jettySize=auto;html=1;exitX=1;exitY=0.5;exitDx=0;exitDy=0;entryX=0;entryY=0.5;entryDx=0;entryDy=0;endArrow=none;endFill=0;" parent="ebvVTvDQEhlDr3C3y-I--1" source="YTVG2GfnRO3AYg1TEgZi-31" target="80" edge="1">
                    <mxGeometry relative="1" as="geometry"/>
                </mxCell>
                <mxCell id="YTVG2GfnRO3AYg1TEgZi-31" value="Buyer" style="strokeWidth=2;whiteSpace=wrap;html=1;align=center;fontSize=15;fontFamily=Helvetica;strokeColor=#b85450;fillColor=#f8cecc;fontStyle=0;rounded=1;" parent="ebvVTvDQEhlDr3C3y-I--1" vertex="1">
                    <mxGeometry x="490" y="-4570" width="100" height="40" as="geometry"/>
                </mxCell>
                <mxCell id="YTVG2GfnRO3AYg1TEgZi-34" style="edgeStyle=none;orthogonalLoop=1;jettySize=auto;html=1;exitX=0;exitY=0;exitDx=0;exitDy=0;entryX=0;entryY=0.963;entryDx=0;entryDy=0;entryPerimeter=0;endArrow=none;endFill=0;fontSize=10;" parent="ebvVTvDQEhlDr3C3y-I--1" source="YTVG2GfnRO3AYg1TEgZi-32" target="YTVG2GfnRO3AYg1TEgZi-28" edge="1">
                    <mxGeometry relative="1" as="geometry"/>
                </mxCell>
                <mxCell id="21" style="edgeStyle=none;orthogonalLoop=1;jettySize=auto;html=1;exitX=0.5;exitY=1;exitDx=0;exitDy=0;entryX=0.5;entryY=0;entryDx=0;entryDy=0;endArrow=none;endFill=0;" parent="ebvVTvDQEhlDr3C3y-I--1" source="YTVG2GfnRO3AYg1TEgZi-32" target="ylnEmxaxOQNy4dpgVC_u-4" edge="1">
                    <mxGeometry relative="1" as="geometry"/>
                </mxCell>
                <mxCell id="34" style="edgeStyle=none;orthogonalLoop=1;jettySize=auto;html=1;exitX=0.75;exitY=0;exitDx=0;exitDy=0;entryX=0;entryY=1;entryDx=0;entryDy=0;endArrow=none;endFill=0;" parent="ebvVTvDQEhlDr3C3y-I--1" source="YTVG2GfnRO3AYg1TEgZi-32" target="32" edge="1">
                    <mxGeometry relative="1" as="geometry"/>
                </mxCell>
                <mxCell id="83" style="edgeStyle=none;orthogonalLoop=1;jettySize=auto;html=1;exitX=1;exitY=0.5;exitDx=0;exitDy=0;entryX=0;entryY=0.5;entryDx=0;entryDy=0;endArrow=none;endFill=0;" parent="ebvVTvDQEhlDr3C3y-I--1" source="YTVG2GfnRO3AYg1TEgZi-32" target="81" edge="1">
                    <mxGeometry relative="1" as="geometry"/>
                </mxCell>
                <mxCell id="YTVG2GfnRO3AYg1TEgZi-32" value="Seller" style="strokeWidth=2;whiteSpace=wrap;html=1;align=center;fontSize=15;fontFamily=Helvetica;strokeColor=#b85450;fillColor=#f8cecc;fontStyle=0;rounded=1;" parent="ebvVTvDQEhlDr3C3y-I--1" vertex="1">
                    <mxGeometry x="725" y="-4595" width="100" height="40" as="geometry"/>
                </mxCell>
                <mxCell id="ylnEmxaxOQNy4dpgVC_u-0" value="&lt;font style=&quot;font-size: 16px&quot;&gt;Places&lt;br&gt;Bid&lt;br&gt;&lt;/font&gt;" style="rhombus;whiteSpace=wrap;html=1;strokeColor=#6c8ebf;fontSize=10;fillColor=#DEBEF7;strokeWidth=2;rounded=1;" parent="ebvVTvDQEhlDr3C3y-I--1" vertex="1">
                    <mxGeometry x="335" y="-4490" width="130" height="80" as="geometry"/>
                </mxCell>
                <mxCell id="113" style="edgeStyle=none;orthogonalLoop=1;jettySize=auto;html=1;exitX=1;exitY=0;exitDx=0;exitDy=0;endArrow=none;endFill=0;strokeColor=#000000;fillColor=#FFE45E;fontColor=#5AA9E6;" parent="ebvVTvDQEhlDr3C3y-I--1" source="ylnEmxaxOQNy4dpgVC_u-1" target="112" edge="1">
                    <mxGeometry relative="1" as="geometry"/>
                </mxCell>
                <mxCell id="ylnEmxaxOQNy4dpgVC_u-1" value="Bid" style="strokeWidth=2;whiteSpace=wrap;html=1;align=center;fontSize=15;fontFamily=Helvetica;strokeColor=#b85450;fillColor=#f8cecc;fontStyle=0;rounded=1;" parent="ebvVTvDQEhlDr3C3y-I--1" vertex="1">
                    <mxGeometry x="225" y="-4335" width="100" height="40" as="geometry"/>
                </mxCell>
                <mxCell id="ylnEmxaxOQNy4dpgVC_u-4" value="&lt;font style=&quot;font-size: 16px&quot;&gt;Creates/&lt;br&gt;Posts&lt;br&gt;&lt;/font&gt;" style="rhombus;whiteSpace=wrap;html=1;strokeColor=#6c8ebf;fontSize=10;fillColor=#DEBEF7;strokeWidth=2;rounded=1;" parent="ebvVTvDQEhlDr3C3y-I--1" vertex="1">
                    <mxGeometry x="677.5" y="-4475" width="125" height="80" as="geometry"/>
                </mxCell>
                <mxCell id="ylnEmxaxOQNy4dpgVC_u-27" style="edgeStyle=none;orthogonalLoop=1;jettySize=auto;html=1;exitX=1;exitY=0;exitDx=0;exitDy=0;entryX=0;entryY=0;entryDx=0;entryDy=0;endArrow=none;endFill=0;fontSize=10;" parent="ebvVTvDQEhlDr3C3y-I--1" source="ylnEmxaxOQNy4dpgVC_u-21" target="ylnEmxaxOQNy4dpgVC_u-1" edge="1">
                    <mxGeometry relative="1" as="geometry"/>
                </mxCell>
                <mxCell id="ylnEmxaxOQNy4dpgVC_u-21" value="&lt;font style=&quot;font-size: 14px&quot;&gt;&lt;u&gt;Bid ID&lt;/u&gt;&lt;/font&gt;" style="ellipse;whiteSpace=wrap;html=1;strokeColor=#6c8ebf;fillColor=#dae8fc;fontSize=10;strokeWidth=2;rounded=1;" parent="ebvVTvDQEhlDr3C3y-I--1" vertex="1">
                    <mxGeometry x="120" y="-4415" width="70" height="70" as="geometry"/>
                </mxCell>
                <mxCell id="ylnEmxaxOQNy4dpgVC_u-29" style="edgeStyle=none;orthogonalLoop=1;jettySize=auto;html=1;exitX=0.5;exitY=0;exitDx=0;exitDy=0;entryX=0;entryY=1;entryDx=0;entryDy=0;endArrow=none;endFill=0;fontSize=10;" parent="ebvVTvDQEhlDr3C3y-I--1" source="ylnEmxaxOQNy4dpgVC_u-22" target="ylnEmxaxOQNy4dpgVC_u-1" edge="1">
                    <mxGeometry relative="1" as="geometry"/>
                </mxCell>
                <mxCell id="ylnEmxaxOQNy4dpgVC_u-22" value="&lt;font style=&quot;font-size: 14px&quot;&gt;Bid Price&lt;/font&gt;" style="ellipse;whiteSpace=wrap;html=1;strokeColor=#6c8ebf;fillColor=#dae8fc;fontSize=10;strokeWidth=2;rounded=1;" parent="ebvVTvDQEhlDr3C3y-I--1" vertex="1">
                    <mxGeometry x="120" y="-4285" width="70" height="70" as="geometry"/>
                </mxCell>
                <mxCell id="ylnEmxaxOQNy4dpgVC_u-28" style="edgeStyle=none;orthogonalLoop=1;jettySize=auto;html=1;exitX=0.5;exitY=0;exitDx=0;exitDy=0;endArrow=none;endFill=0;fontSize=10;" parent="ebvVTvDQEhlDr3C3y-I--1" source="ylnEmxaxOQNy4dpgVC_u-23" target="ylnEmxaxOQNy4dpgVC_u-1" edge="1">
                    <mxGeometry relative="1" as="geometry"/>
                </mxCell>
                <mxCell id="ylnEmxaxOQNy4dpgVC_u-23" value="&lt;font style=&quot;font-size: 14px&quot;&gt;Bid&lt;br&gt;Date/Time&lt;br&gt;&lt;/font&gt;" style="ellipse;whiteSpace=wrap;html=1;strokeColor=#6c8ebf;fillColor=#dae8fc;fontSize=10;strokeWidth=2;rounded=1;" parent="ebvVTvDQEhlDr3C3y-I--1" vertex="1">
                    <mxGeometry x="180" y="-4225" width="70" height="70" as="geometry"/>
                </mxCell>
                <mxCell id="ylnEmxaxOQNy4dpgVC_u-26" style="edgeStyle=none;orthogonalLoop=1;jettySize=auto;html=1;exitX=0;exitY=0;exitDx=0;exitDy=0;endArrow=none;endFill=0;fontSize=10;" parent="ebvVTvDQEhlDr3C3y-I--1" source="ylnEmxaxOQNy4dpgVC_u-24" target="YTVG2GfnRO3AYg1TEgZi-3" edge="1">
                    <mxGeometry relative="1" as="geometry"/>
                </mxCell>
                <mxCell id="ylnEmxaxOQNy4dpgVC_u-24" value="&lt;font style=&quot;font-size: 14px&quot;&gt;Password&lt;/font&gt;" style="ellipse;whiteSpace=wrap;html=1;strokeColor=#6c8ebf;fillColor=#dae8fc;fontSize=10;strokeWidth=2;rounded=1;" parent="ebvVTvDQEhlDr3C3y-I--1" vertex="1">
                    <mxGeometry x="695" y="-4840" width="70" height="70" as="geometry"/>
                </mxCell>
                <mxCell id="ylnEmxaxOQNy4dpgVC_u-38" value="" style="fontSize=12;html=1;endArrow=ERmandOne;startArrow=ERmandOne;exitX=0.5;exitY=0;exitDx=0;exitDy=0;entryX=0.5;entryY=1;entryDx=0;entryDy=0;" parent="ebvVTvDQEhlDr3C3y-I--1" source="ylnEmxaxOQNy4dpgVC_u-1" target="ylnEmxaxOQNy4dpgVC_u-0" edge="1">
                    <mxGeometry width="100" height="100" relative="1" as="geometry">
                        <mxPoint x="340" y="-4295" as="sourcePoint"/>
                        <mxPoint x="440" y="-4395" as="targetPoint"/>
                    </mxGeometry>
                </mxCell>
                <mxCell id="ylnEmxaxOQNy4dpgVC_u-39" value="" style="fontSize=12;html=1;endArrow=ERmandOne;startArrow=ERmandOne;entryX=0.5;entryY=1;entryDx=0;entryDy=0;exitX=0.5;exitY=0;exitDx=0;exitDy=0;" parent="ebvVTvDQEhlDr3C3y-I--1" source="ylnEmxaxOQNy4dpgVC_u-7" target="ylnEmxaxOQNy4dpgVC_u-4" edge="1">
                    <mxGeometry width="100" height="100" relative="1" as="geometry">
                        <mxPoint x="1110" y="-4190" as="sourcePoint"/>
                        <mxPoint x="1205" y="-4280" as="targetPoint"/>
                    </mxGeometry>
                </mxCell>
                <mxCell id="48" style="edgeStyle=none;orthogonalLoop=1;jettySize=auto;html=1;exitX=0.5;exitY=1;exitDx=0;exitDy=0;entryX=0.25;entryY=0;entryDx=0;entryDy=0;endArrow=none;endFill=0;" parent="ebvVTvDQEhlDr3C3y-I--1" source="G7zGfi4XQLMXJdrA0Zwe-1" target="ylnEmxaxOQNy4dpgVC_u-1" edge="1">
                    <mxGeometry relative="1" as="geometry"/>
                </mxCell>
                <mxCell id="G7zGfi4XQLMXJdrA0Zwe-1" value="&lt;span style=&quot;font-size: 14px&quot;&gt;Secret Maxmimum Offer&lt;br&gt;&lt;/span&gt;" style="ellipse;whiteSpace=wrap;html=1;strokeColor=#6c8ebf;fillColor=#dae8fc;fontSize=10;strokeWidth=2;rounded=1;" parent="ebvVTvDQEhlDr3C3y-I--1" vertex="1">
                    <mxGeometry x="215" y="-4460" width="80" height="80" as="geometry"/>
                </mxCell>
                <mxCell id="8" style="edgeStyle=none;orthogonalLoop=1;jettySize=auto;html=1;exitX=1;exitY=0;exitDx=0;exitDy=0;entryX=0;entryY=0.013;entryDx=0;entryDy=0;entryPerimeter=0;endArrow=none;endFill=0;" parent="ebvVTvDQEhlDr3C3y-I--1" source="7" target="YTVG2GfnRO3AYg1TEgZi-28" edge="1">
                    <mxGeometry relative="1" as="geometry"/>
                </mxCell>
                <mxCell id="7" value="Staff" style="strokeWidth=2;whiteSpace=wrap;html=1;align=center;fontSize=15;fontFamily=Helvetica;strokeColor=#b85450;fillColor=#f8cecc;fontStyle=0;rounded=1;" parent="ebvVTvDQEhlDr3C3y-I--1" vertex="1">
                    <mxGeometry x="195" y="-4655" width="100" height="40" as="geometry"/>
                </mxCell>
                <mxCell id="14" style="orthogonalLoop=1;jettySize=auto;html=1;exitX=1;exitY=0.5;exitDx=0;exitDy=0;entryX=0;entryY=0.25;entryDx=0;entryDy=0;endFill=0;endArrow=none;" parent="ebvVTvDQEhlDr3C3y-I--1" source="9" target="7" edge="1">
                    <mxGeometry relative="1" as="geometry"/>
                </mxCell>
                <mxCell id="9" value="&lt;font style=&quot;font-size: 14px&quot;&gt;&lt;u&gt;is_Admin&lt;/u&gt;&lt;/font&gt;" style="ellipse;whiteSpace=wrap;html=1;strokeColor=#6c8ebf;fillColor=#dae8fc;fontSize=10;strokeWidth=2;rounded=1;" parent="ebvVTvDQEhlDr3C3y-I--1" vertex="1">
                    <mxGeometry x="50" y="-4625" width="70" height="70" as="geometry"/>
                </mxCell>
                <mxCell id="32" value="&lt;span style=&quot;font-size: 14px&quot;&gt;&lt;u&gt;Seller ID&lt;/u&gt;&lt;br&gt;&lt;/span&gt;" style="ellipse;whiteSpace=wrap;html=1;strokeColor=#6c8ebf;fillColor=#dae8fc;fontSize=10;strokeWidth=2;rounded=1;" parent="ebvVTvDQEhlDr3C3y-I--1" vertex="1">
                    <mxGeometry x="802.5" y="-4690" width="80" height="80" as="geometry"/>
                </mxCell>
                <mxCell id="43" style="edgeStyle=none;orthogonalLoop=1;jettySize=auto;html=1;exitX=0;exitY=0.5;exitDx=0;exitDy=0;endArrow=none;endFill=0;" parent="ebvVTvDQEhlDr3C3y-I--1" edge="1">
                    <mxGeometry relative="1" as="geometry">
                        <mxPoint x="410" y="-4210" as="sourcePoint"/>
                        <mxPoint x="410" y="-4210" as="targetPoint"/>
                    </mxGeometry>
                </mxCell>
                <mxCell id="55" style="edgeStyle=none;orthogonalLoop=1;jettySize=auto;html=1;exitX=0;exitY=1;exitDx=0;exitDy=0;entryX=1;entryY=0;entryDx=0;entryDy=0;endArrow=ERmandOne;strokeColor=#000000;fontColor=#000000;fontSize=12;startArrow=ERmandOne;" parent="ebvVTvDQEhlDr3C3y-I--1" source="53" target="23" edge="1">
                    <mxGeometry relative="1" as="geometry"/>
                </mxCell>
                <mxCell id="121" style="edgeStyle=none;rounded=0;orthogonalLoop=1;jettySize=auto;html=1;exitX=1;exitY=0;exitDx=0;exitDy=0;entryX=0;entryY=1;entryDx=0;entryDy=0;endArrow=none;endFill=0;" parent="ebvVTvDQEhlDr3C3y-I--1" source="53" target="ylnEmxaxOQNy4dpgVC_u-7" edge="1">
                    <mxGeometry relative="1" as="geometry"/>
                </mxCell>
                <mxCell id="53" value="&lt;font style=&quot;font-size: 16px&quot;&gt;Auctioning&lt;br&gt;&lt;/font&gt;" style="rhombus;whiteSpace=wrap;html=1;strokeColor=#6c8ebf;fontSize=10;fillColor=#DEBEF7;strokeWidth=2;rounded=1;" parent="ebvVTvDQEhlDr3C3y-I--1" vertex="1">
                    <mxGeometry x="490" y="-4010" width="125" height="80" as="geometry"/>
                </mxCell>
                <mxCell id="57" style="edgeStyle=none;orthogonalLoop=1;jettySize=auto;html=1;exitX=1;exitY=0.5;exitDx=0;exitDy=0;endArrow=none;endFill=0;strokeColor=#000000;fillColor=#FFE45E;fontColor=#5AA9E6;" parent="ebvVTvDQEhlDr3C3y-I--1" source="56" target="ylnEmxaxOQNy4dpgVC_u-7" edge="1">
                    <mxGeometry relative="1" as="geometry"/>
                </mxCell>
                <mxCell id="58" style="edgeStyle=none;orthogonalLoop=1;jettySize=auto;html=1;exitX=0;exitY=0.5;exitDx=0;exitDy=0;endArrow=none;endFill=0;strokeColor=#000000;fillColor=#FFE45E;fontColor=#5AA9E6;" parent="ebvVTvDQEhlDr3C3y-I--1" source="56" target="ylnEmxaxOQNy4dpgVC_u-1" edge="1">
                    <mxGeometry relative="1" as="geometry"/>
                </mxCell>
                <mxCell id="56" value="&lt;font style=&quot;font-size: 16px&quot;&gt;And&lt;br&gt;&lt;/font&gt;" style="rhombus;whiteSpace=wrap;html=1;strokeColor=#6c8ebf;fontSize=10;fillColor=#DEBEF7;strokeWidth=2;rounded=1;" parent="ebvVTvDQEhlDr3C3y-I--1" vertex="1">
                    <mxGeometry x="375" y="-4275" width="125" height="80" as="geometry"/>
                </mxCell>
                <mxCell id="60" value="" style="group;rounded=1;" parent="ebvVTvDQEhlDr3C3y-I--1" connectable="0" vertex="1">
                    <mxGeometry x="640" y="-4195" width="305" height="255" as="geometry"/>
                </mxCell>
                <mxCell id="ylnEmxaxOQNy4dpgVC_u-7" value="Auction" style="strokeWidth=2;whiteSpace=wrap;html=1;align=center;fontSize=15;fontFamily=Helvetica;strokeColor=#b85450;fillColor=#f8cecc;fontStyle=0;rounded=1;" parent="60" vertex="1">
                    <mxGeometry y="70" width="100" height="40" as="geometry"/>
                </mxCell>
                <mxCell id="ylnEmxaxOQNy4dpgVC_u-19" style="edgeStyle=none;orthogonalLoop=1;jettySize=auto;html=1;exitX=0;exitY=0;exitDx=0;exitDy=0;entryX=0.87;entryY=1;entryDx=0;entryDy=0;entryPerimeter=0;endArrow=none;endFill=0;fontSize=10;" parent="60" source="ylnEmxaxOQNy4dpgVC_u-11" target="ylnEmxaxOQNy4dpgVC_u-7" edge="1">
                    <mxGeometry relative="1" as="geometry"/>
                </mxCell>
                <mxCell id="ylnEmxaxOQNy4dpgVC_u-11" value="&lt;span style=&quot;font-size: 14px&quot;&gt;Auction&lt;br&gt;Start&lt;br&gt;Date/Time&lt;br&gt;&lt;/span&gt;" style="ellipse;whiteSpace=wrap;html=1;strokeColor=#6c8ebf;fillColor=#dae8fc;fontSize=10;strokeWidth=2;rounded=1;" parent="60" vertex="1">
                    <mxGeometry x="120" y="190" width="80" height="80" as="geometry"/>
                </mxCell>
                <mxCell id="ylnEmxaxOQNy4dpgVC_u-18" style="edgeStyle=none;orthogonalLoop=1;jettySize=auto;html=1;exitX=0.5;exitY=0;exitDx=0;exitDy=0;entryX=0.34;entryY=1.025;entryDx=0;entryDy=0;entryPerimeter=0;endArrow=none;endFill=0;fontSize=10;" parent="60" source="ylnEmxaxOQNy4dpgVC_u-16" target="ylnEmxaxOQNy4dpgVC_u-7" edge="1">
                    <mxGeometry relative="1" as="geometry"/>
                </mxCell>
                <mxCell id="ylnEmxaxOQNy4dpgVC_u-16" value="&lt;font style=&quot;font-size: 14px&quot;&gt;Reserve&lt;br&gt;Min Price&lt;br&gt;&lt;/font&gt;" style="ellipse;whiteSpace=wrap;html=1;strokeColor=#6c8ebf;fillColor=#dae8fc;fontSize=10;strokeWidth=2;rounded=1;" parent="60" vertex="1">
                    <mxGeometry x="30" y="165" width="70" height="70" as="geometry"/>
                </mxCell>
                <mxCell id="77" value="&lt;span style=&quot;font-size: 14px&quot;&gt;Buy Now Price&lt;/span&gt;" style="ellipse;whiteSpace=wrap;html=1;strokeColor=#6c8ebf;fillColor=#dae8fc;fontSize=10;strokeWidth=2;rounded=1;" parent="60" vertex="1">
                    <mxGeometry x="215" y="25" width="70" height="70" as="geometry"/>
                </mxCell>
                <mxCell id="90" style="edgeStyle=none;orthogonalLoop=1;jettySize=auto;html=1;exitX=1;exitY=0.5;exitDx=0;exitDy=0;entryX=0;entryY=1;entryDx=0;entryDy=0;endArrow=none;endFill=0;" parent="60" source="ylnEmxaxOQNy4dpgVC_u-7" target="77" edge="1">
                    <mxGeometry relative="1" as="geometry"/>
                </mxCell>
                <mxCell id="ylnEmxaxOQNy4dpgVC_u-9" value="&lt;u style=&quot;font-size: 14px&quot;&gt;Auction ID&lt;/u&gt;" style="ellipse;whiteSpace=wrap;html=1;strokeColor=#6c8ebf;fillColor=#dae8fc;fontSize=10;strokeWidth=2;rounded=1;" parent="60" vertex="1">
                    <mxGeometry x="215" y="185" width="70" height="70" as="geometry"/>
                </mxCell>
                <mxCell id="59" style="edgeStyle=none;orthogonalLoop=1;jettySize=auto;html=1;exitX=1;exitY=0.75;exitDx=0;exitDy=0;entryX=0;entryY=0.5;entryDx=0;entryDy=0;endArrow=none;endFill=0;" parent="60" source="ylnEmxaxOQNy4dpgVC_u-7" target="ylnEmxaxOQNy4dpgVC_u-9" edge="1">
                    <mxGeometry relative="1" as="geometry"/>
                </mxCell>
                <mxCell id="ylnEmxaxOQNy4dpgVC_u-15" value="&lt;span style=&quot;font-size: 14px&quot;&gt;Auction&lt;br&gt;End&lt;br&gt;Date/Time&lt;br&gt;&lt;/span&gt;" style="ellipse;whiteSpace=wrap;html=1;strokeColor=#6c8ebf;fillColor=#dae8fc;fontSize=10;strokeWidth=2;rounded=1;" parent="60" vertex="1">
                    <mxGeometry x="225" y="105" width="80" height="80" as="geometry"/>
                </mxCell>
                <mxCell id="ylnEmxaxOQNy4dpgVC_u-20" style="edgeStyle=none;orthogonalLoop=1;jettySize=auto;html=1;exitX=0;exitY=0.5;exitDx=0;exitDy=0;entryX=1;entryY=0.5;entryDx=0;entryDy=0;endArrow=none;endFill=0;fontSize=10;" parent="60" source="ylnEmxaxOQNy4dpgVC_u-15" target="ylnEmxaxOQNy4dpgVC_u-7" edge="1">
                    <mxGeometry relative="1" as="geometry"/>
                </mxCell>
                <mxCell id="168" value="&lt;font style=&quot;font-size: 15px&quot;&gt;&lt;b&gt;1 ... 1&lt;/b&gt;&lt;/font&gt;" style="text;html=1;align=center;verticalAlign=middle;resizable=0;points=[];autosize=1;rotation=-30;" vertex="1" parent="60">
                    <mxGeometry x="150" width="50" height="20" as="geometry"/>
                </mxCell>
                <mxCell id="61" value="" style="group;rounded=1;" parent="ebvVTvDQEhlDr3C3y-I--1" vertex="1" connectable="0">
                    <mxGeometry x="209.5" y="-3900" width="435" height="201" as="geometry"/>
                </mxCell>
                <mxCell id="23" value="Product" style="strokeWidth=2;whiteSpace=wrap;html=1;align=center;fontSize=15;fontFamily=Helvetica;strokeColor=#b85450;fillColor=#f8cecc;fontStyle=0;rounded=1;" parent="61" vertex="1">
                    <mxGeometry x="145" width="100" height="40" as="geometry"/>
                </mxCell>
                <mxCell id="24" style="edgeStyle=none;orthogonalLoop=1;jettySize=auto;html=1;exitX=0.5;exitY=0;exitDx=0;exitDy=0;entryX=0;entryY=1;entryDx=0;entryDy=0;endArrow=none;endFill=0;fontSize=10;" parent="61" source="25" target="23" edge="1">
                    <mxGeometry relative="1" as="geometry"/>
                </mxCell>
                <mxCell id="25" value="&lt;font style=&quot;font-size: 14px&quot;&gt;&lt;u&gt;ProductID&lt;/u&gt;&lt;/font&gt;" style="ellipse;whiteSpace=wrap;html=1;strokeColor=#6c8ebf;fillColor=#dae8fc;fontSize=10;strokeWidth=2;rounded=1;" parent="61" vertex="1">
                    <mxGeometry y="30" width="70" height="70" as="geometry"/>
                </mxCell>
                <mxCell id="26" style="edgeStyle=none;orthogonalLoop=1;jettySize=auto;html=1;exitX=0;exitY=0;exitDx=0;exitDy=0;entryX=0.87;entryY=1;entryDx=0;entryDy=0;entryPerimeter=0;endArrow=none;endFill=0;fontSize=10;" parent="61" source="35" target="23" edge="1">
                    <mxGeometry relative="1" as="geometry">
                        <mxPoint x="286.7157287525206" y="116.71572875252059" as="sourcePoint"/>
                    </mxGeometry>
                </mxCell>
                <mxCell id="28" style="edgeStyle=none;orthogonalLoop=1;jettySize=auto;html=1;exitX=0;exitY=0.5;exitDx=0;exitDy=0;entryX=1;entryY=0.5;entryDx=0;entryDy=0;endArrow=none;endFill=0;fontSize=10;" parent="61" source="29" target="23" edge="1">
                    <mxGeometry relative="1" as="geometry"/>
                </mxCell>
                <mxCell id="29" value="&lt;span style=&quot;font-size: 14px&quot;&gt;Decription&lt;br&gt;&lt;/span&gt;" style="ellipse;whiteSpace=wrap;html=1;strokeColor=#6c8ebf;fillColor=#dae8fc;fontSize=10;strokeWidth=2;rounded=1;" parent="61" vertex="1">
                    <mxGeometry x="355" width="80" height="80" as="geometry"/>
                </mxCell>
                <mxCell id="35" value="&lt;font style=&quot;font-size: 14px&quot;&gt;Name&lt;br&gt;&lt;/font&gt;" style="ellipse;whiteSpace=wrap;html=1;strokeColor=#6c8ebf;fillColor=#dae8fc;fontSize=10;strokeWidth=2;rounded=1;" parent="61" vertex="1">
                    <mxGeometry x="295" y="90" width="70" height="70" as="geometry"/>
                </mxCell>
                <mxCell id="51" value="&lt;font style=&quot;font-size: 14px&quot;&gt;Expiry&lt;br&gt;&lt;/font&gt;" style="ellipse;whiteSpace=wrap;html=1;strokeColor=#6c8ebf;fillColor=#dae8fc;fontSize=10;strokeWidth=2;rounded=1;" parent="61" vertex="1">
                    <mxGeometry x="195" y="123" width="70" height="70" as="geometry"/>
                </mxCell>
                <mxCell id="52" style="edgeStyle=none;orthogonalLoop=1;jettySize=auto;html=1;exitX=0.5;exitY=1;exitDx=0;exitDy=0;entryX=0.5;entryY=0;entryDx=0;entryDy=0;endArrow=none;endFill=0;strokeColor=#000000;fillColor=#FFE45E;fontColor=#5AA9E6;" parent="61" source="23" target="51" edge="1">
                    <mxGeometry relative="1" as="geometry"/>
                </mxCell>
                <mxCell id="36" value="&lt;font style=&quot;font-size: 14px&quot;&gt;Category&lt;br&gt;&lt;/font&gt;" style="ellipse;whiteSpace=wrap;html=1;strokeColor=#6c8ebf;fillColor=#dae8fc;fontSize=10;strokeWidth=2;rounded=1;" parent="61" vertex="1">
                    <mxGeometry x="15.5" y="115" width="85" height="86" as="geometry"/>
                </mxCell>
                <mxCell id="31" value="&lt;font style=&quot;font-size: 14px&quot;&gt;Category&lt;br&gt;&lt;/font&gt;" style="ellipse;whiteSpace=wrap;html=1;strokeColor=#6c8ebf;fillColor=#dae8fc;fontSize=10;strokeWidth=2;rounded=1;" parent="61" vertex="1">
                    <mxGeometry x="23" y="123" width="70" height="70" as="geometry"/>
                </mxCell>
                <mxCell id="30" style="edgeStyle=none;orthogonalLoop=1;jettySize=auto;html=1;exitX=0.5;exitY=0;exitDx=0;exitDy=0;entryX=0.34;entryY=1.025;entryDx=0;entryDy=0;entryPerimeter=0;endArrow=none;endFill=0;fontSize=10;" parent="61" source="31" target="23" edge="1">
                    <mxGeometry relative="1" as="geometry"/>
                </mxCell>
                <mxCell id="66" style="edgeStyle=none;orthogonalLoop=1;jettySize=auto;html=1;exitX=0.5;exitY=1;exitDx=0;exitDy=0;endArrow=none;endFill=0;strokeColor=#000000;fillColor=#FFE45E;fontColor=#5AA9E6;" parent="ebvVTvDQEhlDr3C3y-I--1" source="63" target="ylnEmxaxOQNy4dpgVC_u-7" edge="1">
                    <mxGeometry relative="1" as="geometry"/>
                </mxCell>
                <mxCell id="63" value="&lt;font style=&quot;font-size: 16px&quot;&gt;Buy now&lt;br&gt;&lt;/font&gt;" style="rhombus;whiteSpace=wrap;html=1;strokeColor=#6c8ebf;fontSize=10;fillColor=#DEBEF7;strokeWidth=2;rounded=1;" parent="ebvVTvDQEhlDr3C3y-I--1" vertex="1">
                    <mxGeometry x="535" y="-4395" width="125" height="80" as="geometry"/>
                </mxCell>
                <mxCell id="92" style="edgeStyle=none;orthogonalLoop=1;jettySize=auto;html=1;exitX=0.5;exitY=1;exitDx=0;exitDy=0;endArrow=none;endFill=0;strokeColor=#000000;fillColor=#FFE45E;fontColor=#5AA9E6;" parent="ebvVTvDQEhlDr3C3y-I--1" source="78" target="91" edge="1">
                    <mxGeometry relative="1" as="geometry"/>
                </mxCell>
                <mxCell id="95" style="edgeStyle=none;orthogonalLoop=1;jettySize=auto;html=1;exitX=1;exitY=0.5;exitDx=0;exitDy=0;entryX=0;entryY=0.5;entryDx=0;entryDy=0;endArrow=none;endFill=0;strokeColor=#000000;fillColor=#FFE45E;fontColor=#5AA9E6;" parent="ebvVTvDQEhlDr3C3y-I--1" source="78" target="94" edge="1">
                    <mxGeometry relative="1" as="geometry"/>
                </mxCell>
                <mxCell id="97" style="edgeStyle=none;orthogonalLoop=1;jettySize=auto;html=1;exitX=1;exitY=1;exitDx=0;exitDy=0;endArrow=none;endFill=0;strokeColor=#000000;fillColor=#FFE45E;fontColor=#5AA9E6;" parent="ebvVTvDQEhlDr3C3y-I--1" source="78" target="96" edge="1">
                    <mxGeometry relative="1" as="geometry"/>
                </mxCell>
                <mxCell id="100" style="edgeStyle=none;orthogonalLoop=1;jettySize=auto;html=1;exitX=0.75;exitY=0;exitDx=0;exitDy=0;entryX=0;entryY=1;entryDx=0;entryDy=0;endArrow=none;endFill=0;strokeColor=#000000;fillColor=#FFE45E;fontColor=#5AA9E6;" parent="ebvVTvDQEhlDr3C3y-I--1" source="78" target="99" edge="1">
                    <mxGeometry relative="1" as="geometry"/>
                </mxCell>
                <mxCell id="78" value="Payment" style="strokeWidth=2;whiteSpace=wrap;html=1;align=center;fontSize=15;fontFamily=Helvetica;strokeColor=#b85450;fillColor=#f8cecc;fontStyle=0;rounded=1;" parent="ebvVTvDQEhlDr3C3y-I--1" vertex="1">
                    <mxGeometry x="980.0000000000001" y="-4400" width="100" height="40" as="geometry"/>
                </mxCell>
                <mxCell id="85" style="edgeStyle=none;orthogonalLoop=1;jettySize=auto;html=1;exitX=1;exitY=1;exitDx=0;exitDy=0;entryX=0;entryY=0;entryDx=0;entryDy=0;endArrow=none;endFill=0;" parent="ebvVTvDQEhlDr3C3y-I--1" source="80" target="78" edge="1">
                    <mxGeometry relative="1" as="geometry"/>
                </mxCell>
                <mxCell id="80" value="&lt;font style=&quot;font-size: 16px&quot;&gt;Makes&lt;br&gt;&lt;/font&gt;" style="rhombus;whiteSpace=wrap;html=1;strokeColor=#6c8ebf;fontSize=10;fillColor=#DEBEF7;strokeWidth=2;rounded=1;" parent="ebvVTvDQEhlDr3C3y-I--1" vertex="1">
                    <mxGeometry x="820" y="-4500" width="125" height="80" as="geometry"/>
                </mxCell>
                <mxCell id="84" style="edgeStyle=none;orthogonalLoop=1;jettySize=auto;html=1;exitX=1;exitY=1;exitDx=0;exitDy=0;entryX=0.5;entryY=0;entryDx=0;entryDy=0;endArrow=none;endFill=0;" parent="ebvVTvDQEhlDr3C3y-I--1" source="81" target="78" edge="1">
                    <mxGeometry relative="1" as="geometry"/>
                </mxCell>
                <mxCell id="81" value="&lt;font style=&quot;font-size: 16px&quot;&gt;Recieves&lt;br&gt;&lt;/font&gt;" style="rhombus;whiteSpace=wrap;html=1;strokeColor=#6c8ebf;fontSize=10;fillColor=#DEBEF7;strokeWidth=2;rounded=1;" parent="ebvVTvDQEhlDr3C3y-I--1" vertex="1">
                    <mxGeometry x="905.0000000000001" y="-4570" width="125" height="80" as="geometry"/>
                </mxCell>
                <mxCell id="93" style="edgeStyle=none;orthogonalLoop=1;jettySize=auto;html=1;exitX=0;exitY=1;exitDx=0;exitDy=0;entryX=0.75;entryY=0;entryDx=0;entryDy=0;endArrow=none;endFill=0;strokeColor=#000000;fillColor=#FFE45E;fontColor=#5AA9E6;" parent="ebvVTvDQEhlDr3C3y-I--1" source="91" target="ylnEmxaxOQNy4dpgVC_u-7" edge="1">
                    <mxGeometry relative="1" as="geometry"/>
                </mxCell>
                <mxCell id="91" value="&lt;font style=&quot;font-size: 16px&quot;&gt;Payment for&lt;br&gt;&lt;/font&gt;" style="rhombus;whiteSpace=wrap;html=1;strokeColor=#6c8ebf;fontSize=10;fillColor=#DEBEF7;strokeWidth=2;rounded=1;" parent="ebvVTvDQEhlDr3C3y-I--1" vertex="1">
                    <mxGeometry x="880.0000000000001" y="-4265" width="125" height="80" as="geometry"/>
                </mxCell>
                <mxCell id="94" value="&lt;span style=&quot;font-size: 14px&quot;&gt;Payment Type&lt;/span&gt;" style="ellipse;whiteSpace=wrap;html=1;strokeColor=#6c8ebf;fillColor=#dae8fc;fontSize=10;strokeWidth=2;rounded=1;" parent="ebvVTvDQEhlDr3C3y-I--1" vertex="1">
                    <mxGeometry x="1145" y="-4440" width="70" height="70" as="geometry"/>
                </mxCell>
                <mxCell id="96" value="&lt;span style=&quot;font-size: 14px&quot;&gt;Amount&lt;/span&gt;" style="ellipse;whiteSpace=wrap;html=1;strokeColor=#6c8ebf;fillColor=#dae8fc;fontSize=10;strokeWidth=2;rounded=1;" parent="ebvVTvDQEhlDr3C3y-I--1" vertex="1">
                    <mxGeometry x="1125" y="-4365" width="70" height="70" as="geometry"/>
                </mxCell>
                <mxCell id="99" value="&lt;span style=&quot;font-size: 14px&quot;&gt;&lt;u&gt;Transaction ID&lt;/u&gt;&lt;/span&gt;" style="ellipse;whiteSpace=wrap;html=1;strokeColor=#6c8ebf;fillColor=#dae8fc;fontSize=10;strokeWidth=2;rounded=1;" parent="ebvVTvDQEhlDr3C3y-I--1" vertex="1">
                    <mxGeometry x="1065" y="-4510" width="90" height="70" as="geometry"/>
                </mxCell>
                <mxCell id="105" value="" style="group;rounded=1;" parent="ebvVTvDQEhlDr3C3y-I--1" connectable="0" vertex="1">
                    <mxGeometry x="345" y="-4800" width="85" height="86" as="geometry"/>
                </mxCell>
                <mxCell id="106" value="&lt;font style=&quot;font-size: 14px&quot;&gt;&lt;br&gt;&lt;/font&gt;" style="ellipse;whiteSpace=wrap;html=1;strokeColor=#6c8ebf;fillColor=#dae8fc;fontSize=10;strokeWidth=2;rounded=1;" parent="105" vertex="1">
                    <mxGeometry width="85" height="86" as="geometry"/>
                </mxCell>
                <mxCell id="107" value="&lt;font style=&quot;font-size: 14px&quot;&gt;Address&lt;br&gt;&lt;/font&gt;" style="ellipse;whiteSpace=wrap;html=1;strokeColor=#6c8ebf;fillColor=#dae8fc;fontSize=10;strokeWidth=2;rounded=1;" parent="105" vertex="1">
                    <mxGeometry x="7.5" y="8" width="70" height="70" as="geometry"/>
                </mxCell>
                <mxCell id="109" style="edgeStyle=none;orthogonalLoop=1;jettySize=auto;html=1;exitX=1;exitY=0;exitDx=0;exitDy=0;entryX=0.328;entryY=1.021;entryDx=0;entryDy=0;entryPerimeter=0;endArrow=none;endFill=0;strokeColor=#000000;fillColor=#FFE45E;fontColor=#5AA9E6;" parent="ebvVTvDQEhlDr3C3y-I--1" source="106" target="YTVG2GfnRO3AYg1TEgZi-3" edge="1">
                    <mxGeometry relative="1" as="geometry"/>
                </mxCell>
                <mxCell id="112" value="&lt;span style=&quot;font-size: 14px&quot;&gt;isMaxBid&lt;br&gt;&lt;/span&gt;" style="ellipse;whiteSpace=wrap;html=1;strokeColor=#6c8ebf;fillColor=#dae8fc;fontSize=10;strokeWidth=2;rounded=1;" parent="ebvVTvDQEhlDr3C3y-I--1" vertex="1">
                    <mxGeometry x="360" y="-4380" width="80" height="80" as="geometry"/>
                </mxCell>
                <mxCell id="122" value="&lt;font style=&quot;font-size: 15px&quot;&gt;&lt;b&gt;1 ... 1&lt;/b&gt;&lt;/font&gt;" style="text;html=1;align=center;verticalAlign=middle;resizable=0;points=[];autosize=1;rotation=30;" parent="ebvVTvDQEhlDr3C3y-I--1" vertex="1">
                    <mxGeometry x="1005" y="-4490" width="50" height="20" as="geometry"/>
                </mxCell>
                <mxCell id="123" value="&lt;b&gt;&lt;font style=&quot;font-size: 15px&quot;&gt;N ... 1&lt;/font&gt;&lt;/b&gt;" style="text;html=1;align=center;verticalAlign=middle;resizable=0;points=[];autosize=1;" parent="ebvVTvDQEhlDr3C3y-I--1" vertex="1">
                    <mxGeometry x="170" y="-4050" width="60" height="20" as="geometry"/>
                </mxCell>
                <mxCell id="124" value="&lt;b&gt;&lt;font style=&quot;font-size: 15px&quot;&gt;1 ... N&lt;/font&gt;&lt;/b&gt;" style="text;html=1;align=center;verticalAlign=middle;resizable=0;points=[];autosize=1;" parent="ebvVTvDQEhlDr3C3y-I--1" vertex="1">
                    <mxGeometry x="180" y="-4030" width="60" height="20" as="geometry"/>
                </mxCell>
                <mxCell id="127" value="&lt;font style=&quot;font-size: 15px&quot;&gt;&lt;b&gt;1 ... 1&lt;/b&gt;&lt;/font&gt;" style="text;html=1;align=center;verticalAlign=middle;resizable=0;points=[];autosize=1;rotation=-60;" parent="ebvVTvDQEhlDr3C3y-I--1" vertex="1">
                    <mxGeometry x="580" y="-4060" width="50" height="20" as="geometry"/>
                </mxCell>
                <mxCell id="128" value="&lt;font style=&quot;font-size: 15px&quot;&gt;&lt;b&gt;0 ... 1&lt;/b&gt;&lt;/font&gt;" style="text;html=1;align=center;verticalAlign=middle;resizable=0;points=[];autosize=1;rotation=-45;" parent="ebvVTvDQEhlDr3C3y-I--1" vertex="1">
                    <mxGeometry x="450" y="-3950" width="50" height="20" as="geometry"/>
                </mxCell>
                <mxCell id="159" value="" style="shape=image;verticalLabelPosition=bottom;labelBackgroundColor=#ffffff;verticalAlign=top;aspect=fixed;imageAspect=0;image=data:image/jpeg,/9j/4AAQSkZJRgABAQAAAQABAAD/2wCEAAkGBxMTEhUTExMVFhUXGBcWGBYYFRcXFRcXFhcXGBcXFxgYHSggGBolGxcVITEhJSkrLi4uFx8zODMtNygtLisBCgoKDg0OGxAQGy0lICUtLS0tLS0tLS0tLS0tLS0tLS0tLS0tLS0tLS0tLS0tLS0tLS0tLS0tLS0tLS0tLS0tLf/AABEIAMIBAwMBIgACEQEDEQH/xAAbAAACAgMBAAAAAAAAAAAAAAAFBgMEAAIHAf/EAD0QAAEDAgMFBgUDAgUEAwAAAAEAAhEDIQQFMRJBUWFxBiKBkaHwEzKxwdFC4fEjUgcUYnKyFTOSohYkwv/EABoBAAMBAQEBAAAAAAAAAAAAAAIDBAEFAAb/xAAqEQACAgICAQQBAwUBAAAAAAAAAQIRAyESMUEEEzJRIjNhcRSRoeHwI//aAAwDAQACEQMRAD8ADPK9ZiSFEXqN718skyekFcGdoyURbCWRjYU7MxVOKXHsyTvSC2IdeymoU1UwsuAJRKmLK5fktGN0U8wZAS6DDvFMOYOsUsuPeXPn8mDJ7Q0YV1giNNsoLlD5AumbD07J/pXqh2RWrKeNodwpWoAtrCU/sobVkt57gdh0jcq2jMTpjb2fdITLSw6TOy2KuE/0NEzDtGzWyEUFhoq5srwsTXEAqCipGMU+wscICxRo8UMwfaEjdqMQ1rDYToE1ZriIBXK+02YGpUgGwUPqpaoYtKyXIMv+NUvoneviGYdmw18EBL/Y+iRTJ56ql2nY8kmDChg+CtdmcvJcr9rD/ddTYHtMXES+FzSq8zdTYTFEEcFU4zSuxymjuWBxW0BDwVNWDuKQOy2ctENO82TzthzVRjlyR5sgrvfyQfGVOKKYgW1QPGUzOqyZ7nRRxT7JezZgIJ3pgr00MxGHmQlNaAyZE1QrMsURoLTHYTZuvMO9TTJlstBixebaxYZxKjSoatVSPdCqEEleivIRgMq1hWyVbyzIqtUgMEmdBJI5kDQdU24HsS9sGo4Dlb6wmxg59DVjk1pA3CthoV1hsrz8pEQHtEc5WlTL3Btod01jjpKqj+KPTwz+gFmTu6UBDN6ZMxy+o8Q1pPohZy8ss834C/roudNtNtge272jTLquw5N+AxExCR65ANkTyXMS2ZNluObi7Db8D6arWNmUr5viDUMAa7lFicyL7DTgmHs3lNtt2p9F01NSWjyXHZU7MZZVaRtCF0bCCAAqWGwoCI0mpuKDWzzdk7VuAo5WtSsG3JA6mFRdAk8KjmGIDQtHZpTkgPaTyIJSr2pzWAQ0gnkUnNmUY6C4sE9qM4/Q3V1kPyrsmXw55MlVMuwznVQ6oQBM3I4ro2ALCBDmnoQuUoSyybl0bJPo9y7J2UqewEudqqTWMKcybJP7X0pYU3PFLHpAM5BjXd4qAFT4+mQ8quAmwrgjyYTyfEkOAHFddyWvt0mk8FyjIsASZhdRyMQyEtTXuOjU/BerBD8RRlE3XXrMPKY9mNgI4MleDLeITCKEKOq0C5ML3EUxOzzJtpp2RdJbgWuINiF1XEV2cUn9pqDHd4CCN/FS5VTs8AA9YogV4lUaaPMo9kOT7UF03vszFuJ4e7ICwI5lNd9P5d91r+huNxTuQ5YHG/CtJgbhv8ypsTmZqb48Z6apXr4OrXaXNOzxMiPVRYKo6mdl7xPM38oj1TZvIoaOxh4SVotZnjm03QTPG+seMO6IZRzKpJcyQ0XiDv6eKI4fCNfUl0GIPXhIlXsxwDTJa2G6C8CRoL+B8V6M6VsbwsXqeePBAvHXha1+W9GMDnzXd17WkHjYked9dZSlntB7XGIgG87/AF+qDtxsfMAb6QTCqinkjaESik6Z0XFZBRr3ov2HbmvMNcf9xFvEJdxeXVaD9mowtcNx38wRII5gqxkecNMN2hHCSI4iE44XFCqzYf36WsG4HSbBSZIx66YjJ6RS3EA9lsL8R5cRIGi6XltCAl/Kcvp0v+2ZbMwfmE6Apnw7rKn0qpbIsicXTLbAo8Vj2Ux3iJ4TdVsW55BDHgHzSjnGWYgAvI2okzPr/BVM8vHpBYsak9sL4/tM7RkDmbD8nzCVczzp7vmfbk4nwSy/NnAw4Cf/AG8Z/KFY3MTEGbb+PS/2So5JSZd7EYDDjc4DbkgHWZ+6q4PMRUcbb5uQTPmEmVcSTvMcJsvKWMey7QD1vAncqljdC3Vj1Xk748SPoVVfiHsuC/q18jyOiW6efvAN7TEbunBFMJnjHfMQOYty6Jck12gkr6GvJO01Zph1QkW4z/4k3PjuTBisb8enYg8/2SSzA7UOBBB0O6eZ3HrxRXL8UKI2qlRrQbDacBPTe5RZGpaienhVWxVznDFryCosrwW05Ee0+OoudtfEYB1knwaFd7PUBZInzxwpqiCUaGDJ8tAGiZ8NR2QocvoCFcdQcTZMxRpAmzCFIa4AsFtTwXEq2zCgblQkeA1Wu86BRjAVH6lMIw4WxYAvcfsGgJSyZo1uhPaTKWFhtcJrq2CVe0eNhpCXmUVE8zmNWnBI4FYtsRiJcTzWKRWL2ZgqUlO+SCk2k7bZBsA8NnXw1S1gKIF0z5fjWjD1GAtBN4MyY5aJ/pJpZLf+SrDFN7L+LrFg+FTbLgJJiBJ1mRCRM0yRznFzydp15AIAPIjd5poxdQuBcbCC5xABNtA0xwASYe0lV4NWkWhkhoa6XONw0H1J6Aro8m2+J0FBJKxj7K4Z7f8Auzsi4dJmZ0IPTimDEYeo7uBpAILbz5z4e9wHJczNZnxBukOaIOy5pg+HBb9pM8q4f4bdomq+NljdzbmXEyN2sed4l9lSk9FXLjHsM1ex/wAVkEkm3e5b7dEExXZWnSfBE2GtzO+QNAocr7eVg8NqujacaYO0HM22kgtJEEX3iQfFHM8zI1KZJBDmi/PS/OD9VTSS4tUJavaAFTIqYJIaB4Kp/wBVZRfs7UQC7gOkxeeCIYTNZafQfTiuadr8aXVyBNuaXj9NDJP8ti55GojmP8QPhuEhhH+mZ5AG8+SeOyfbJmLBLW1GkEDvtgGd7TMELhGAdtiCPHf4LpmV4pzfhuJHytkAjgNwCz1yjginBEWXasL9sqbqVQ1KW1FUOLmhxb3gB3hB3zpxvvRnsc+pVwx26jngnVxlw3EH97j6Bu2YL8O2s0zsztdHRBjqAPFFf8PquzghJMknh9k7BPnBWNxxXFPyV+0GQ0iNI52+6Tc4y1rG/KRuJhx8dIXTNunJfVIDBaNZ6DVBM2x2Hrd3a2I3WAjd7PFT5McU/wAS/HbWzlVPDNcbH7KPGYUtcQQBuMldAd2YolwcHeUGedlvX7K0J23EnlryTVnBeBiHg8HTO8aa7kcy3swx9zpwTA3BYWzQBPOfT+VYbhxSMtsDw/KVKdvthcKXRthMk+FTOyTpp71SFmuPcapYSAdN5OuhB18V13L64cyNbc/uuI9uGlmKqEH9URw6JvpcaUtdiMsnWy7hsH8R7fiEHacNABH4HQJmyvECnU2ST1IhAOzompTaQSZBN40ub+Cs5gSKhIBAniT6qf1y5NJkuetHS8qx4cbFM1AyuU9mcyO3BXTMtrSFLgyNPiyaVBZgUzQoKblYYr4gnsLRwUq0eiZ4oY10Bcx7Z4yAQDqn7PMVstK5B2jxhqVDwCizO5KILBYevV42iViz8TA/VqbKyhiXFwDdSVTr1JMqxkbZrN3md6Qu0Fgk3Ib8i7o2HjiOWv3VCr2Ewu2XtqOphxlzATs84AIgoliX7LiHNvv4HmFJUqbREWbqeY/tXVcmnSO3FJpWQ5ZlVDDsc2i3ZaTMySXGANok9FSxXZjDYoFwc9lUuDtrbPzCQLGQLEiIRPE1CAbQEMZWIO02035IXkcZNoc8acUiHDdgAx7Klet8TYdLGQAJ4mAFv2qrho7tuaKvxzWsBJB4R79EEzTZqCSfUWha58q0L48bFjD1DMAOIn+0n1CXe0eFpg7Yd/VLj3NdoXvyhdByu7oZZsGb31QbM+z4rVnEARGp2vsbJ+OS5X0TTWqFDJcA6q9lJsAuMAk2E6kndvXQsbl72kAGQ0RbS1kFwORuoGTHgZjzumPAY3TvTyB9/RI9dH3KroWsakqZZyDFgzRqXa4EEEWINiFJ2fqCi2pSJbLHuEQdrZmJB3zqiuWYdjjtS3a5tEjrZRZtlIZUqOAb3yCHA79kSNeMqb0y9u1YePDwPW4Z1Vjni7oOyD8reFuPNczdUfNX/MGqKkODQ5zqdEOi2ljDr7yRF10vJXlp2TafP1RXFUqGr6THO/u3z4WlVY2lZVJOVCN2Eq1Hmq0lxpN2dhxkgzMgP/VoLoh2wzR1GmGMZVLnA7T2tkNE6TpMdY1O5MbqgmGgNaNABZbUK5MtNxvsNPFZcFPkG4y4Uckdi2ETRe8v7nw/6jn1HPAh/wAQExBOnAW3Sui4qgWUGOI2XbIkbg6OCK/5CgDttY0O4kX63QjPKjnAtHlYj8JeWSaPY4tGuXYkjd9D/C5x2wp0nYuW7e2S51SR3LfJfjYz4c09ZfgwSNu88tPX1VWv2cZUcXbIPO4878tEfp5KMrbJ8ytUL2Q1NioHM+bZI5X116Jq2GVBFQNk8TB9UPwmRimS6TE6h0A8tdOqsPZUnukRuENP1uhzuE5AxTrZawOSsadphg7gYv4ym7Kato3pJfUqtibjjp5bOp8EVy/O2iA5pj+4EH34qP2uMuSF5MEZLXY/UXq5TegOCzBrxY/lEqVZUwmc+UXF0wkCo6xUTa8BVsTixxTXNUeFztSxxaYXNH4LvnaldVx2KaZmEjZu9rnwwdSuZll+Vox1ZRZltliv0azoFliwP8foWHuV7IyRVaRxCoQjeSULgrJOkIg+Ox2zf5WvjUR47lrh8EWt2hcgaaX3rMO3absneLdeq1q5vSoH+q8NdpBPDh5rrxfJWdrBkjJJoizLEViAynR7z2klzjIYZLQIA72h4KnjMAWzGg3e+CJDtJREk2FrkEDlchDMyz2mdKjYP+oJUl5sssB4zEEnZ3AxPK/1XraTXnW3X8KtjW7RkaOvI3ojgGAAAC/5+6ECRrSolullPTp7OpglWvhmbBT08KSRIDvCD4I0mTti5mGWv2tp87HiPoF5l9JgO00yN8iTHTf6I/n+FOyO7I4Ax6hLjCW32WkC97EcRPHwQynLo1RQynHUwA5hnn9iCEQbihXpETcenT+EnNxDQ/QieN2kfZW8PXDXSyY/U33u9UtOnYdWqCGFqOa6DFufuEWdVkDz4AD8IFVrg95pAnW0ieaL5awVA2Tq0TrE71tNjoNEwkiwsfVRsq3k2IsR+4U+NbUZtwGkBpLJmzgLAxu9VHRwTvhzUI252jaByETPnKx2N8FXEZnsNcJMiw4dLIcXPLd19/7KLMIBAmTJPKZt+F6Xu2e8QLa6+X5S5GE+CcW6m/p0hWKINSwHcm50lDKLS6PVHcvAAA3cpP2hFjt6ETRbZhGERFuv2QfEsAOz+kz/ADA193RvWdeOn0sl/Midq55ifG4PEX/dFlVdC47InCHd1xjk5pPOQVBiCAZAFxAInXeDG/qta4sDM8be7c7qKswBwgCLSN/nxm6BSN4lnKs2NN0nyOhHEGLeicctzVlQS09QkigO9BMTIvv4yN5UtJppQ5rreMDlFit82hWTEpqmP2LxsBJOe5q8GzlYqZoajIBE75/cShdHL3OfLzKTnm2c7JilAmwWMqPbB3q9hMq3uCI5flwbdEfhpMMXli0geMOOC8RD4axP4m2cqYJKbMlw2yBKE5TgwTtFMeHEJcI85WTvQXwQ7wXmf5RSf3n02uBABJaCvMCbhNlGgHsg3B1taF18MOSaLPSZHE5vT7PYUiDSBH9pc4tt/pmFQqdncEHS2iy3AGJ+kLoFbs7ScTBc3kDZCsZ2bj5HGNYWSw515/ydT3sX0LFTCeW7SFawGHJcBHuUVblxm40VrDYeCSlwx72DPJZXq0oP0UwpQ22vJTYWtJujgwjXAd109JE8ZCs4J9CroCVmbVMtLWkxvJB8p+qSca3YLmkHneOnUdE/Z42oxkw6N+0AdnnPWAue4iqajyDcGYPXUdbiy5ubU6KMfRUp0ZiDPKZ8wtqIh0Cx3HjyPNbPobJEfuPPULZ1F0QdRv8AsR71QdhBnLA18t/nwUja/wDlpJDo4gG3VCcLjNnWA4EX180x0nhzQ4Fs+h/dPj0CnTBtbt1TizXHnBWn/wA1p1LBlSeAYT9FpmGRUaj9pzNl2+O7tdYUkU6QhjQ0chErJ5IV07HLl22qKTsQaneLXAbmu1jiRu8VsaskbgN3H9lPUe5w69F7Rw0kTflvU8k2e5lvA0LX3opQpwOm5Q0KXdEC492V2m2b++l0/HEVNmj6kAEW92vHogGbk7ZkiNRqNRw/CM4ox6iOKD5lQL2EyJFuomL+iXlMiC3uixG4EOGo5e/5sUaJLQe8dx324j8WVOLEH6xHHTqUWwTRJIsf7T056hBEJkNdhaDDhwm1+Xe06hCsf8TZIa64FxNzPASTKO4+j3ToD006RuQTGNDgQToNQPrw68fFPqtirB+TY521Dr8riOnBPmXgELndUHauZiwcdfHn1Tj2bzKwY+J4peeG+SE5IuUNDSxSrMOyVbbQQqNnMsoEngsRD4Kxe4M9bErAYcAK4QtKQhblMww4xEy2T4apBTjk1QFut+qRw5G8mxoadJJVWKXGQ7DKmNNandVyFbDgWyoHnkupBlrKowoJJQ3E04BRmwCqV6Ug21SpwXg1SAmHYDBFue9MWGqgNEyYi4v4x9kGoYbZdbT0n7K+ys5s6RvEfX9ku6QZFnL9ppAPQwRfqOi51iGf1DfZMwRukfUfun/HPB1drodbdd49bJazLAk98X3cj73LkZrc7LYdAetUnUCeMXj7qRjA6bwR1jwXuIwwvH8eCmw9MiO8LaGPQzrv965FbMkwVjsLGhjnx4eCmyGrsGHSfHujpu9UbdhA+1roHjcGWPJ3DdPuVU1oUnsc8PsvG4+qgx2Aa4RCqZNjBsgWRpr5WpKSMegG7BxuW1DDHaRl+HnRb4fDckXsbB9wrUqFgtzSHiiAorWvTAv5I3jo9yAmJbre/wDbY7vRCKzYm1ibjw1E6o9j2D5vf7aITi2ieH2n6j9lHlQ2DAtSiJJB+/r+VawtIiDs3A13EcD73rVogkEEib8vyP5VqgWtiZI8bePDn52S4RoKTLtNm0z5ZH9tjY8EEzLCQ7aFhPUH8Hr6o9RqAacZH8gXC1zKkCJ0nnI/dVJXEU9MSsRgyHSDPP8A/J/dTYCpBAMyBPgrVSoLh3hafUe+Sq4vQQPEG4+yTJXoJHQuz+I2mDQ8wjoC552QzXZqbBNnRIPHiF0MmyyC1Rzc8OMyMlYtCsWiBRC2KxoXrgmCuJopKFUg2URChdUul5Z8Ue6H7J8cCAJkq7iAB1SVkmNbTMk/ynJtQPauh6P1HuQ/cuxy5IrufxW9K6r4vcF5ha94VXLdMZRZfhbKniKeseI+hCLTIVOqFmSGjYsXMSREbwbHTfP2UNbEggA24xaRvP1sreaMi8Ag2PUaGUHqV4sQI5+9Vxs6akW43aIatnEHkZ+8KN/dM28Br1B8LfsvcTUEaQbfwfqtWDaF9RpH496nigvZtE1GvfaHlceIP1Cjzhwe2bTxUNMnb5DW1uo58h91SzCsWkg8Tf3uuqMbdULaKmX5hs1IBBEwOM6X8JTzhaoge7pAy3LXveaoFmyepRvD1nt15CSbDl5rVOKdGuLHGjWlXGiISvRzCCJcPNEX9oKMfONPd1TDLCtsRKL+gwXwog+bcj+Uu1s+b/cD4rb/AKkf7mgx4wV6WXH4Z5Rl9BLEMAsdPd0HqgSeMRxBCno5kHS1/wA2gKqYl7ePiCDbgRum3ops1NWhsLKNUOBDgeWhgkbjz/EcFYDZ0sY0j6cVXq6kTIOsiOQcPMKSm+2y6NLg6+B3KXkh1G+Fq7oB+sdPxr1siVECpTLTv0vaOR9+CDkkGAdPM8xx3THrYqzhsR+oEEb4MA8dN6fjlTFSQEzDDkEg6jgYJ/dUHU7SYcdDG8cY4o32mo6VGzz3jxHFAi4ObbWx3na9ytmqPRZmCr7L2nn1C6nlmJ2mCdY0/C5NMTEaXE3BmN66D2axu3RHEWKT0yf1UfxsPF6xVDVWLbOfQvNepQUGOKupm4xJ99WMjHRcqvVJ9VRYjGqo6tKmzZHPSFyjss0a5Lh1T32bzDaaZ5Bc/piETyvHlrh1VXo7xOxmO4j9jtZ5Ia6oZ98kQp1RUphw4IXjTAnePYXcclVsqW+gt/nmtbLnAdTCqDNqbvlqNJ5EdUk5oXOu8kmYA3dPrdLeMw0HaaY4QSCOYUf9bJuq0Uf06q7Os4lwIkQRaQlzH0xJ3g6cxzS1kfat9M/DqkncHH6HkmCtjA8FwIjXXzhblSyL9wY3B7IKJAOyb7p+xC1DtiREkaeP6SPuqFbFQ4GDM+Y5c1q/FzJBtpbdO+OH0Uf8lCCchrhG+8GPLlwW7soNdwqbMU2SXmbEbhAvwVLCU3VYnQAyeEa+spgwWKa+nWa0nYY0Njm6RPM80UW26RrSSsV88z2+yxoY0ABrWkgdefVAn5mT8xi2rjedbAX4WVquJqCLwbT1mb+S8GWkmROk7rgm021MGeN1SsMK6J3ORXONcQADE840E+vNelxIGybjfYk8TJv4dFuzAk2vwsNeikxGVvbIJ0G4gdRpJ4HxS5qMPIcbkZSrmds7gN5JPCTI1kafsrdLEkkku0PG28W3DlrYSgTsS5h7zepBuNbwd99eSLUKjSAdQBIjedZ8voUpxfYVl2rXEWdJO+bCTA8NdVVZUI70mSW66AG4+h8ypG0JgzGkcLCPqfVYaG0955sI13CCffFetUeolp1SDBmZIPUfYj3KkqVjrqLA8RzWrvm2jvc0+G/ykeSjL2ttpfqIv5iItzHBLcPoKy78WW6GR5xxHLTispOlvPeRGu5wB05g+Oir05BGydARx8L9R5q2yoBOjjr6i31ITFGgWybHOLqRsDa4+43jelCi8XEbzw2h+d6bSYa8AB1todNbeE+iUS/aO1EXv6Ajomv4gLs2cCTE3G/d709EwdlcZDi3cUuGzp3FsRuPA8v4RPs4/vEeyp59GZtwY8fFXqHfEXqXyOQK7Xrx1dVi9aEqJqzeVI3fUkq7g6cqhTbdF8GE3FBORi+yY0LKs/ulWMRVjRUy7aMSr3SHxdj52Wxs0I338AFHmVWDHifIlSdn8KKTA3VzonpqhOc4j+tBMAG/QRJ8pTs02sUUW4IbB2Jd/THE2nrEn3zQOvTbMkl0e4ARbFAxrAG1HIE/XRC30wwSR4ch7CljPyVUCMdSDhILtdd3RQ4LNHU5YSdnjPoiFR/d5ET1m/huQfG05bIjQeepPvgqcc1LTAlDyHGY0OAE8OvgfBRurmZaYM97hpqlmniSw7J3adEToY0G8jnx6pksXlC1OtDjgMxDMO8gd6SDfQkW+6v9hqRNHFVdR3BsxJDi4kGRyGnIJOq1IaYOt7aTxPAp07EYk/8ATsY8EQHCBI1+HO0W+IEf6VmONJo2Tti/UpzUJiwJt4XHqI8UGxXaTYqOpMBO0CBpYHXTj9SiFGr3j3jffuO1/KEZBgfjY2q8fKyGzxPXz8lQ2oxt+EKptjT2cY5zXVH6gW3QLWHu8FVswLiQSY3wOAi3mfRH6TQ0Bo3g/WL8kAzFne5AxHGN3muZKVuytKtAnFVJm0T+bKrh6rqb51G8bo4K8W25mfC/8qjiKUTH8+Hlqig60a1Yz4LFMqt2mmIgAR3hDt5XriWi3zGRbW/7pQo1iyS0xx1/CN4HN3SNqCLDcPNMcE+hV0TCu4bIAt8x67/Un0UGIqS0NbMgC8bzqPCEwUGtcAQ3n5+ypP8AKDcxA4yiwlJMX3B4IM6DTju9RE9FcwzCHyT3nONv9Nvv9VYx1Go27WgX4HreFQ+NUB3bTv1R5DkLLY8n2edF3M8YKbX3G2QIHJxP4S9TYSC3T39NfYWwpOedt5O2N3TTod0KdtSdAd4j621G4+CZLWgER4ioNkiNBHU629fNb5HU74PKeu66hrOAaGeROusD7LbKu7a2/wAQUl/BnpdP+Bv+KFiF/GXin5I41AZj5UhKp05VpjUqcKN4liirVOvBVEmAo6dQym4VWwXoJ4jEKTs5hPjYho/SLnwQjEVEd7Du/qapy3JWMw7kP+XtmoTuAt9Es50ya0R+vXwTXgmECeLrJfzJv9Z07iT1JkBU+rjcInUwumwbjqNmkDcG/RAcY2Q6Ro6CeQP7BNeL04CBfmQZjyF0BxuHFwBMG/M7vVTuCrQ1S2ANnQb58A0Cw62VSsyZOgM/Q/ZFXUoMR+mRzJB9lQ18JLPBltLkXQxlT2MoWMY2ZAF+J4ET+FVwmK2SNrgD1HVG8bSMm14sPMX8kExFE68ftIiF0MM00TZIjFh8WwtkuMf2kTrrEJi7EYmaOLw7JBJFQSdRsubpvvs+ZXNsNX2DxC6B/hTW+JjKjXQAaFT/ANXMP5TvbFxnsEYVuy+5Oyd1psbgWPD1RbskWbNeoz9dSemlvv4rTtGW0K/wyPmHdcLzuuPD8Kv2ZrBpqUzve50DSHXafJK9Qv8AzbDx90NAqHZaR80OB5CNfOUKxNEkxy09ZJ4lGMDSlh4kHwv/AAh+LEWvc7POwt9ly4JvZS2gTVibaga+IAPviqVXChxJ1tMyY14auKt1WQ4xaZ6gDT6BbNp2vcW6RIC3k+0FQGqMsYbYcxC8p9w/UcuqOV6AM73GwsQGwb20Q2tgrOPzARJJcG+UybxpCZDJ4BlAbcgxLNkd4niCLjkjnxhqII97lzHAYx1J0zLD4COQ1HXrZOuW4oObIuDvVKyPpk7gl0FnPBBnWUCxlCQ487HxV+vUgWVGmCS4TI1FtANxCxys1IEinLgf/Lns/soNgNkiSBcefvwKvVAG1HQO67xg2j7qnij+m2/dxuD/AOU+SVPsNdFDFXLZ0g+oCmypw4cfGVDiHd3d7iVPlRsTzPnvQy+AE3Sb/YJ7S8WsrFGckGUleYsWJkw0aVlVparFi9DoXM3xGqO9lP8Aut6hYsTIfJB4OzpNc2Z1H1S7m5/qnxXixW+q+KOli7NcR8o6t/4lBqup8foV6sSn0H5A7/ld1P0Ct1xp/tH/ACXixSZPkUw6F/HjvHr90CqD5Op+ixYrMH/f2FZAbSFz73p4/wALXEY+nBjuvHhCxYuiSL5FXPHl1RpcS7+rWF72FQgC+4BZgz/9hn+z7lYsSs36YcPmdByn5B1+6F5ru8fqsWLn4/ih0uwFVHfPU/ZEmsGwLD5xuWLEn/Q1G9RoLmggRtm3mtM3YNkCBBqCRFj3narFiSvmv5G+BVzc79+04Tvi6MdkD3XDda27csWLoQ/TJZ/IYqxsOn2QahUPx2iTEHfyKxYvLsHwSZkP6h98EONzT6H6lYsQT8hxBOK0H+4/8QiOW/KOixYszfpoVl+Mi8sWLFCcs//Z;" parent="ebvVTvDQEhlDr3C3y-I--1" vertex="1">
                    <mxGeometry x="1590" y="-4670" width="627.11" height="469.73" as="geometry"/>
                </mxCell>
                <mxCell id="160" value="&lt;font size=&quot;1&quot;&gt;&lt;b style=&quot;font-size: 29px&quot;&gt;^ Rachael and Kevin ^&lt;/b&gt;&lt;/font&gt;" style="text;html=1;align=center;verticalAlign=middle;resizable=0;points=[];autosize=1;" parent="ebvVTvDQEhlDr3C3y-I--1" vertex="1">
                    <mxGeometry x="1732.5" y="-4165" width="320" height="30" as="geometry"/>
                </mxCell>
                <mxCell id="161" value="&lt;b style=&quot;font-size: 15px&quot;&gt;0 ... N&lt;/b&gt;" style="text;html=1;align=center;verticalAlign=middle;resizable=0;points=[];autosize=1;" vertex="1" parent="ebvVTvDQEhlDr3C3y-I--1">
                    <mxGeometry x="170" y="-3980" width="60" height="20" as="geometry"/>
                </mxCell>
                <mxCell id="163" value="&lt;b style=&quot;font-size: 15px&quot;&gt;0 ... N&lt;/b&gt;" style="text;html=1;align=center;verticalAlign=middle;resizable=0;points=[];autosize=1;rotation=-30;" vertex="1" parent="ebvVTvDQEhlDr3C3y-I--1">
                    <mxGeometry x="430" y="-4510" width="60" height="20" as="geometry"/>
                </mxCell>
                <mxCell id="164" value="&lt;b style=&quot;font-size: 15px&quot;&gt;0 ... N&lt;/b&gt;" style="text;html=1;align=center;verticalAlign=middle;resizable=0;points=[];autosize=1;rotation=45;" vertex="1" parent="ebvVTvDQEhlDr3C3y-I--1">
                    <mxGeometry x="575" y="-4470" width="60" height="20" as="geometry"/>
                </mxCell>
                <mxCell id="169" value="&lt;font style=&quot;font-size: 15px&quot;&gt;&lt;b&gt;1 ... 1&lt;/b&gt;&lt;/font&gt;" style="text;html=1;align=center;verticalAlign=middle;resizable=0;points=[];autosize=1;rotation=-45;" vertex="1" parent="ebvVTvDQEhlDr3C3y-I--1">
                    <mxGeometry x="945" y="-4325" width="50" height="20" as="geometry"/>
                </mxCell>
                <mxCell id="170" value="&lt;font style=&quot;font-size: 15px&quot;&gt;&lt;b&gt;1 ... 1&lt;/b&gt;&lt;/font&gt;" style="text;html=1;align=center;verticalAlign=middle;resizable=0;points=[];autosize=1;rotation=-30;" vertex="1" parent="ebvVTvDQEhlDr3C3y-I--1">
                    <mxGeometry x="300" y="-4400" width="50" height="20" as="geometry"/>
                </mxCell>
                <mxCell id="171" value="&lt;font style=&quot;font-size: 15px&quot;&gt;&lt;b&gt;1 ... 1&lt;/b&gt;&lt;/font&gt;" style="text;html=1;align=center;verticalAlign=middle;resizable=0;points=[];autosize=1;rotation=30;" vertex="1" parent="ebvVTvDQEhlDr3C3y-I--1">
                    <mxGeometry x="335" y="-4285" width="50" height="20" as="geometry"/>
                </mxCell>
                <mxCell id="172" value="&lt;font style=&quot;font-size: 15px&quot;&gt;&lt;b&gt;1 ... 1&lt;/b&gt;&lt;/font&gt;" style="text;html=1;align=center;verticalAlign=middle;resizable=0;points=[];autosize=1;rotation=30;" vertex="1" parent="ebvVTvDQEhlDr3C3y-I--1">
                    <mxGeometry x="560" y="-4215" width="50" height="20" as="geometry"/>
                </mxCell>
                <mxCell id="173" value="&lt;b style=&quot;font-size: 15px&quot;&gt;0 ... N&lt;/b&gt;" style="text;html=1;align=center;verticalAlign=middle;resizable=0;points=[];autosize=1;rotation=20;" vertex="1" parent="ebvVTvDQEhlDr3C3y-I--1">
                    <mxGeometry x="650" y="-4550" width="60" height="20" as="geometry"/>
                </mxCell>
                <mxCell id="176" value="&lt;font style=&quot;font-size: 15px&quot;&gt;&lt;b&gt;1 ... 1&lt;/b&gt;&lt;/font&gt;" style="text;html=1;align=center;verticalAlign=middle;resizable=0;points=[];autosize=1;rotation=30;" vertex="1" parent="ebvVTvDQEhlDr3C3y-I--1">
                    <mxGeometry x="942.5" y="-4445" width="50" height="20" as="geometry"/>
                </mxCell>
                <mxCell id="177" value="{overlapping, total}" style="text;html=1;resizable=0;autosize=1;align=center;verticalAlign=middle;points=[];fillColor=none;strokeColor=none;rounded=0;" vertex="1" parent="ebvVTvDQEhlDr3C3y-I--1">
                    <mxGeometry x="550" y="-4720" width="110" height="20" as="geometry"/>
                </mxCell>
                <mxCell id="179" value="&lt;font style=&quot;font-size: 15px&quot;&gt;&lt;b&gt;1 ... 1&lt;/b&gt;&lt;/font&gt;" style="text;html=1;align=center;verticalAlign=middle;resizable=0;points=[];autosize=1;" vertex="1" parent="ebvVTvDQEhlDr3C3y-I--1">
                    <mxGeometry x="715" y="-4260" width="50" height="20" as="geometry"/>
                </mxCell>
                <mxCell id="180" value="&lt;b style=&quot;font-size: 15px&quot;&gt;0 ... N&lt;/b&gt;" style="text;html=1;align=center;verticalAlign=middle;resizable=0;points=[];autosize=1;" vertex="1" parent="ebvVTvDQEhlDr3C3y-I--1">
                    <mxGeometry x="760" y="-4530" width="60" height="20" as="geometry"/>
                </mxCell>
                <mxCell id="181" value="&lt;b style=&quot;font-size: 15px&quot;&gt;0 ... N&lt;/b&gt;" style="text;html=1;align=center;verticalAlign=middle;resizable=0;points=[];autosize=1;rotation=30;" vertex="1" parent="ebvVTvDQEhlDr3C3y-I--1">
                    <mxGeometry x="852.5" y="-4585" width="60" height="20" as="geometry"/>
                </mxCell>
                <mxCell id="182" value="&lt;font style=&quot;font-size: 15px&quot;&gt;&lt;b&gt;1 ... 1&lt;/b&gt;&lt;/font&gt;" style="text;html=1;align=center;verticalAlign=middle;resizable=0;points=[];autosize=1;rotation=60;" vertex="1" parent="ebvVTvDQEhlDr3C3y-I--1">
                    <mxGeometry x="627.5" y="-4265" width="50" height="20" as="geometry"/>
                </mxCell>
            </root>
        </mxGraphModel>
    </diagram>
    <diagram id="fc1f3b67-3c9b-b1b3-7705-706421d27264" name="ERD Habit Tracker app">
        &#xa;        &#xa;        &#xa;&#xa;&#xa;
        <mxGraphModel dx="1422" dy="762" grid="1" gridSize="10" guides="1" tooltips="1" connect="1" arrows="1" fold="1" page="1" pageScale="1" pageWidth="850" pageHeight="1100" math="0" shadow="0">
            &#xa;            &#xa;            &#xa;&#xa;&#xa;
            <root>
                &#xa;                &#xa;                &#xa;&#xa;&#xa;
                <mxCell id="0"/>
                &#xa;                &#xa;                &#xa;&#xa;&#xa;
                <mxCell id="1" parent="0"/>
                &#xa;                &#xa;                &#xa;&#xa;&#xa;
                <mxCell id="4cd4486c729dc68b-1" value="User" style="strokeWidth=2;whiteSpace=wrap;html=1;align=center;fontSize=13;fontFamily=Helvetica;fontColor=#000000;strokeColor=#d79b00;fillColor=#ffe6cc;" parent="1" vertex="1">
                    &#xa;                    &#xa;                    &#xa;&#xa;&#xa;
                    <mxGeometry x="120" y="160" width="70" height="70" as="geometry"/>
                    &#xa;                    &#xa;                    &#xa;&#xa;&#xa;
                </mxCell>
                &#xa;                &#xa;                &#xa;&#xa;&#xa;
                <mxCell id="4a63a70a29bb4ada-1" value="Name" style="ellipse;whiteSpace=wrap;html=1;aspect=fixed;fontSize=10;fillColor=#dae8fc;strokeColor=#6c8ebf;" parent="1" vertex="1">
                    &#xa;                    &#xa;                    &#xa;&#xa;&#xa;
                    <mxGeometry x="118" y="95" width="50" height="50" as="geometry"/>
                    &#xa;                    &#xa;                    &#xa;&#xa;&#xa;
                </mxCell>
                &#xa;                &#xa;                &#xa;&#xa;&#xa;
                <mxCell id="4a63a70a29bb4ada-2" value="&lt;u&gt;&amp;nbsp;UserID&amp;nbsp;&lt;/u&gt;" style="ellipse;whiteSpace=wrap;html=1;aspect=fixed;fontSize=10;fillColor=#dae8fc;strokeColor=#6c8ebf;" parent="1" vertex="1">
                    &#xa;                    &#xa;                    &#xa;&#xa;&#xa;
                    <mxGeometry x="34" y="111" width="66" height="66" as="geometry"/>
                    &#xa;                    &#xa;                    &#xa;&#xa;&#xa;
                </mxCell>
                &#xa;                &#xa;                &#xa;&#xa;&#xa;
                <mxCell id="4a63a70a29bb4ada-3" value="&lt;i&gt;CoachID&lt;/i&gt;" style="ellipse;whiteSpace=wrap;html=1;aspect=fixed;fontSize=10;fillColor=#dae8fc;strokeColor=#6c8ebf;" parent="1" vertex="1">
                    &#xa;                    &#xa;                    &#xa;&#xa;&#xa;
                    <mxGeometry x="43" y="199" width="50" height="50" as="geometry"/>
                    &#xa;                    &#xa;                    &#xa;&#xa;&#xa;
                </mxCell>
                &#xa;                &#xa;                &#xa;&#xa;&#xa;
                <mxCell id="4a63a70a29bb4ada-5" value="Habit" style="strokeWidth=2;whiteSpace=wrap;html=1;align=center;fontSize=13;fontFamily=Helvetica;fontColor=#000000;strokeColor=#d79b00;fillColor=#ffe6cc;" parent="1" vertex="1">
                    &#xa;                    &#xa;                    &#xa;&#xa;&#xa;
                    <mxGeometry x="490" y="143" width="70" height="70" as="geometry"/>
                    &#xa;                    &#xa;                    &#xa;&#xa;&#xa;
                </mxCell>
                &#xa;                &#xa;                &#xa;&#xa;&#xa;
                <mxCell id="4a63a70a29bb4ada-6" value="Habit Name" style="ellipse;whiteSpace=wrap;html=1;aspect=fixed;fontSize=10;fillColor=#dae8fc;strokeColor=#6c8ebf;" parent="1" vertex="1">
                    &#xa;                    &#xa;                    &#xa;&#xa;&#xa;
                    <mxGeometry x="510" y="69" width="50" height="50" as="geometry"/>
                    &#xa;                    &#xa;                    &#xa;&#xa;&#xa;
                </mxCell>
                &#xa;                &#xa;                &#xa;&#xa;&#xa;
                <mxCell id="5ecfb9fce94ea102-6" value="" style="edgeStyle=none;rounded=0;html=1;startArrow=none;startFill=0;endArrow=none;endFill=0;jettySize=auto;orthogonalLoop=1;strokeColor=#000066;fontSize=13;" parent="1" source="4a63a70a29bb4ada-6" target="4a63a70a29bb4ada-5" edge="1">
                    &#xa;                    &#xa;                    &#xa;&#xa;&#xa;
                    <mxGeometry relative="1" as="geometry"/>
                    &#xa;                    &#xa;                    &#xa;&#xa;&#xa;
                </mxCell>
                &#xa;                &#xa;                &#xa;&#xa;&#xa;
                <mxCell id="4a63a70a29bb4ada-8" value="&lt;u&gt;&amp;nbsp;HabitID&amp;nbsp;&lt;/u&gt;" style="ellipse;whiteSpace=wrap;html=1;aspect=fixed;fontSize=10;fillColor=#dae8fc;strokeColor=#6c8ebf;" parent="1" vertex="1">
                    &#xa;                    &#xa;                    &#xa;&#xa;&#xa;
                    <mxGeometry x="579" y="87" width="66" height="66" as="geometry"/>
                    &#xa;                    &#xa;                    &#xa;&#xa;&#xa;
                </mxCell>
                &#xa;                &#xa;                &#xa;&#xa;&#xa;
                <mxCell id="4a63a70a29bb4ada-9" value="" style="edgeStyle=orthogonalEdgeStyle;html=1;endArrow=ERzeroToMany;endFill=1;fontSize=13;exitX=1;exitY=0.5;entryX=0;entryY=0.5;rounded=0;" parent="1" source="61c8091a879e1e43-1" target="4a63a70a29bb4ada-5" edge="1">
                    &#xa;                    &#xa;                    &#xa;&#xa;&#xa;
                    <mxGeometry width="100" height="100" relative="1" as="geometry">
                        &#xa;                        &#xa;                        &#xa;&#xa;&#xa;
                        <mxPoint x="285" y="370" as="sourcePoint"/>
                        &#xa;                        &#xa;                        &#xa;&#xa;&#xa;
                        <mxPoint x="385" y="270" as="targetPoint"/>
                        &#xa;                        &#xa;                        &#xa;&#xa;&#xa;
                    </mxGeometry>
                    &#xa;                    &#xa;                    &#xa;&#xa;&#xa;
                </mxCell>
                &#xa;                &#xa;                &#xa;&#xa;&#xa;
                <mxCell id="4a63a70a29bb4ada-10" value="" style="edgeStyle=orthogonalEdgeStyle;html=1;endArrow=none;endFill=0;fontSize=13;exitX=1;exitY=0.25;entryX=0;entryY=0.5;rounded=0;startArrow=ERmany;startFill=0;" parent="1" source="4cd4486c729dc68b-1" target="61c8091a879e1e43-1" edge="1">
                    &#xa;                    &#xa;                    &#xa;&#xa;&#xa;
                    <mxGeometry width="100" height="100" relative="1" as="geometry">
                        &#xa;                        &#xa;                        &#xa;&#xa;&#xa;
                        <mxPoint x="190" y="195" as="sourcePoint"/>
                        &#xa;                        &#xa;                        &#xa;&#xa;&#xa;
                        <mxPoint x="365" y="195" as="targetPoint"/>
                        &#xa;                        &#xa;                        &#xa;&#xa;&#xa;
                    </mxGeometry>
                    &#xa;                    &#xa;                    &#xa;&#xa;&#xa;
                </mxCell>
                &#xa;                &#xa;                &#xa;&#xa;&#xa;
                <mxCell id="4a63a70a29bb4ada-13" value="Checkin" style="strokeWidth=2;whiteSpace=wrap;html=1;align=center;fontSize=13;fontFamily=Helvetica;fontColor=#000000;strokeColor=#d79b00;fillColor=#ffe6cc;" parent="1" vertex="1">
                    &#xa;                    &#xa;                    &#xa;&#xa;&#xa;
                    <mxGeometry x="490" y="279" width="70" height="70" as="geometry"/>
                    &#xa;                    &#xa;                    &#xa;&#xa;&#xa;
                </mxCell>
                &#xa;                &#xa;                &#xa;&#xa;&#xa;
                <mxCell id="4a63a70a29bb4ada-16" value="Comment" style="strokeWidth=2;whiteSpace=wrap;html=1;align=center;fontSize=13;fontFamily=Helvetica;fontColor=#000000;strokeColor=#d79b00;fillColor=#ffe6cc;" parent="1" vertex="1">
                    &#xa;                    &#xa;                    &#xa;&#xa;&#xa;
                    <mxGeometry x="490" y="482" width="70" height="70" as="geometry"/>
                    &#xa;                    &#xa;                    &#xa;&#xa;&#xa;
                </mxCell>
                &#xa;                &#xa;                &#xa;&#xa;&#xa;
                <mxCell id="4a63a70a29bb4ada-18" value="Writes" style="shape=rhombus;strokeWidth=2;fontSize=13;perimeter=rhombusPerimeter;whiteSpace=wrap;html=1;align=center;fillColor=#d5e8d4;strokeColor=#82b366;" parent="1" vertex="1">
                    &#xa;                    &#xa;                    &#xa;&#xa;&#xa;
                    <mxGeometry x="313" y="422" width="70" height="70" as="geometry"/>
                    &#xa;                    &#xa;                    &#xa;&#xa;&#xa;
                </mxCell>
                &#xa;                &#xa;                &#xa;&#xa;&#xa;
                <mxCell id="4a63a70a29bb4ada-19" value="Coach" style="strokeWidth=2;whiteSpace=wrap;html=1;align=center;fontSize=13;fontFamily=Helvetica;fontColor=#000000;strokeColor=#d79b00;fillColor=#ffe6cc;" parent="1" vertex="1">
                    &#xa;                    &#xa;                    &#xa;&#xa;&#xa;
                    <mxGeometry x="120" y="370" width="70" height="70" as="geometry"/>
                    &#xa;                    &#xa;                    &#xa;&#xa;&#xa;
                </mxCell>
                &#xa;                &#xa;                &#xa;&#xa;&#xa;
                <mxCell id="4a63a70a29bb4ada-20" value="&lt;u&gt;&amp;nbsp;CoachID&amp;nbsp;&lt;/u&gt;" style="ellipse;whiteSpace=wrap;html=1;aspect=fixed;fontSize=10;fillColor=#dae8fc;strokeColor=#6c8ebf;" parent="1" vertex="1">
                    &#xa;                    &#xa;                    &#xa;&#xa;&#xa;
                    <mxGeometry x="34" y="384" width="66" height="66" as="geometry"/>
                    &#xa;                    &#xa;                    &#xa;&#xa;&#xa;
                </mxCell>
                &#xa;                &#xa;                &#xa;&#xa;&#xa;
                <mxCell id="4a63a70a29bb4ada-21" value="Name" style="ellipse;whiteSpace=wrap;html=1;aspect=fixed;fontSize=10;fillColor=#dae8fc;strokeColor=#6c8ebf;" parent="1" vertex="1">
                    &#xa;                    &#xa;                    &#xa;&#xa;&#xa;
                    <mxGeometry x="93" y="457" width="50" height="50" as="geometry"/>
                    &#xa;                    &#xa;                    &#xa;&#xa;&#xa;
                </mxCell>
                &#xa;                &#xa;                &#xa;&#xa;&#xa;
                <mxCell id="4a63a70a29bb4ada-22" value="Has" style="shape=rhombus;strokeWidth=2;fontSize=13;perimeter=rhombusPerimeter;whiteSpace=wrap;html=1;align=center;fillColor=#d5e8d4;strokeColor=#82b366;" parent="1" vertex="1">
                    &#xa;                    &#xa;                    &#xa;&#xa;&#xa;
                    <mxGeometry x="120" y="265" width="70" height="70" as="geometry"/>
                    &#xa;                    &#xa;                    &#xa;&#xa;&#xa;
                </mxCell>
                &#xa;                &#xa;                &#xa;&#xa;&#xa;
                <mxCell id="4a63a70a29bb4ada-23" value="Does" style="shape=rhombus;strokeWidth=2;fontSize=13;perimeter=rhombusPerimeter;whiteSpace=wrap;html=1;align=center;fillColor=#d5e8d4;strokeColor=#82b366;" parent="1" vertex="1">
                    &#xa;                    &#xa;                    &#xa;&#xa;&#xa;
                    <mxGeometry x="315" y="279" width="70" height="70" as="geometry"/>
                    &#xa;                    &#xa;                    &#xa;&#xa;&#xa;
                </mxCell>
                &#xa;                &#xa;                &#xa;&#xa;&#xa;
                <mxCell id="4a63a70a29bb4ada-24" style="edgeStyle=orthogonalEdgeStyle;rounded=0;html=1;exitX=1;exitY=0.75;entryX=0;entryY=0.5;endArrow=none;endFill=0;jettySize=auto;orthogonalLoop=1;fontSize=12;startArrow=ERmandOne;startFill=0;" parent="1" source="4cd4486c729dc68b-1" target="4a63a70a29bb4ada-23" edge="1">
                    &#xa;                    &#xa;                    &#xa;&#xa;&#xa;
                    <mxGeometry relative="1" as="geometry">
                        &#xa;                        &#xa;                        &#xa;&#xa;&#xa;
                        <Array as="points">
                            &#xa;                            &#xa;                            &#xa;&#xa;&#xa;
                            <mxPoint x="285" y="213"/>
                            &#xa;                            &#xa;                            &#xa;&#xa;&#xa;
                            <mxPoint x="285" y="314"/>
                            &#xa;                            &#xa;                            &#xa;&#xa;&#xa;
                        </Array>
                        &#xa;                        &#xa;                        &#xa;&#xa;&#xa;
                    </mxGeometry>
                    &#xa;                    &#xa;                    &#xa;&#xa;&#xa;
                </mxCell>
                &#xa;                &#xa;                &#xa;&#xa;&#xa;
                <mxCell id="4a63a70a29bb4ada-29" style="edgeStyle=orthogonalEdgeStyle;rounded=0;html=1;exitX=0.5;exitY=1;entryX=0;entryY=0.5;endArrow=none;endFill=0;jettySize=auto;orthogonalLoop=1;fontSize=12;" parent="1" source="4a63a70a29bb4ada-13" target="4a63a70a29bb4ada-31" edge="1">
                    &#xa;                    &#xa;                    &#xa;&#xa;&#xa;
                    <mxGeometry relative="1" as="geometry">
                        &#xa;                        &#xa;                        &#xa;&#xa;&#xa;
                        <mxPoint x="519" y="430" as="targetPoint"/>
                        &#xa;                        &#xa;                        &#xa;&#xa;&#xa;
                    </mxGeometry>
                    &#xa;                    &#xa;                    &#xa;&#xa;&#xa;
                </mxCell>
                &#xa;                &#xa;                &#xa;&#xa;&#xa;
                <mxCell id="4a63a70a29bb4ada-30" style="edgeStyle=orthogonalEdgeStyle;rounded=0;html=1;exitX=1;exitY=0.5;entryX=0.5;entryY=0;endArrow=ERzeroToMany;endFill=1;jettySize=auto;orthogonalLoop=1;fontSize=12;" parent="1" source="4a63a70a29bb4ada-31" target="4a63a70a29bb4ada-16" edge="1">
                    &#xa;                    &#xa;                    &#xa;&#xa;&#xa;
                    <mxGeometry relative="1" as="geometry">
                        &#xa;                        &#xa;                        &#xa;&#xa;&#xa;
                        <mxPoint x="519" y="550" as="sourcePoint"/>
                        &#xa;                        &#xa;                        &#xa;&#xa;&#xa;
                    </mxGeometry>
                    &#xa;                    &#xa;                    &#xa;&#xa;&#xa;
                </mxCell>
                &#xa;                &#xa;                &#xa;&#xa;&#xa;
                <mxCell id="4a63a70a29bb4ada-31" value="Has" style="shape=rhombus;strokeWidth=2;fontSize=13;perimeter=rhombusPerimeter;whiteSpace=wrap;html=1;align=center;direction=south;fillColor=#d5e8d4;strokeColor=#82b366;" parent="1" vertex="1">
                    &#xa;                    &#xa;                    &#xa;&#xa;&#xa;
                    <mxGeometry x="490" y="373" width="70" height="70" as="geometry"/>
                    &#xa;                    &#xa;                    &#xa;&#xa;&#xa;
                </mxCell>
                &#xa;                &#xa;                &#xa;&#xa;&#xa;
                <mxCell id="4a63a70a29bb4ada-38" style="edgeStyle=orthogonalEdgeStyle;rounded=0;html=1;exitX=1;exitY=0.5;entryX=0;entryY=0.5;endArrow=ERzeroToMany;endFill=1;jettySize=auto;orthogonalLoop=1;fontSize=12;" parent="1" source="4a63a70a29bb4ada-23" target="4a63a70a29bb4ada-13" edge="1">
                    &#xa;                    &#xa;                    &#xa;&#xa;&#xa;
                    <mxGeometry relative="1" as="geometry"/>
                    &#xa;                    &#xa;                    &#xa;&#xa;&#xa;
                </mxCell>
                &#xa;                &#xa;                &#xa;&#xa;&#xa;
                <mxCell id="4a63a70a29bb4ada-39" style="edgeStyle=orthogonalEdgeStyle;rounded=0;html=1;exitX=0.5;exitY=0;entryX=0.5;entryY=1;endArrow=none;endFill=0;jettySize=auto;orthogonalLoop=1;fontSize=12;startArrow=ERzeroToOne;startFill=1;" parent="1" source="4a63a70a29bb4ada-19" target="4a63a70a29bb4ada-22" edge="1">
                    &#xa;                    &#xa;                    &#xa;&#xa;&#xa;
                    <mxGeometry relative="1" as="geometry"/>
                    &#xa;                    &#xa;                    &#xa;&#xa;&#xa;
                </mxCell>
                &#xa;                &#xa;                &#xa;&#xa;&#xa;
                <mxCell id="4a63a70a29bb4ada-40" style="edgeStyle=orthogonalEdgeStyle;rounded=0;html=1;exitX=0.5;exitY=0;entryX=0.5;entryY=1;endArrow=ERzeroToMany;endFill=1;jettySize=auto;orthogonalLoop=1;fontSize=12;" parent="1" source="4a63a70a29bb4ada-22" target="4cd4486c729dc68b-1" edge="1">
                    &#xa;                    &#xa;                    &#xa;&#xa;&#xa;
                    <mxGeometry relative="1" as="geometry"/>
                    &#xa;                    &#xa;                    &#xa;&#xa;&#xa;
                </mxCell>
                &#xa;                &#xa;                &#xa;&#xa;&#xa;
                <mxCell id="4a63a70a29bb4ada-41" style="edgeStyle=orthogonalEdgeStyle;rounded=0;html=1;exitX=0.75;exitY=1;endArrow=none;endFill=0;jettySize=auto;orthogonalLoop=1;fontSize=12;startArrow=ERmandOne;startFill=0;entryX=0;entryY=0.5;" parent="1" source="4cd4486c729dc68b-1" target="4a63a70a29bb4ada-18" edge="1">
                    &#xa;                    &#xa;                    &#xa;&#xa;&#xa;
                    <mxGeometry relative="1" as="geometry">
                        &#xa;                        &#xa;                        &#xa;&#xa;&#xa;
                        <Array as="points">
                            &#xa;                            &#xa;                            &#xa;&#xa;&#xa;
                            <mxPoint x="173" y="260"/>
                            &#xa;                            &#xa;                            &#xa;&#xa;&#xa;
                            <mxPoint x="240" y="260"/>
                            &#xa;                            &#xa;                            &#xa;&#xa;&#xa;
                            <mxPoint x="240" y="457"/>
                            &#xa;                            &#xa;                            &#xa;&#xa;&#xa;
                        </Array>
                        &#xa;                        &#xa;                        &#xa;&#xa;&#xa;
                        <mxPoint x="300" y="457" as="targetPoint"/>
                        &#xa;                        &#xa;                        &#xa;&#xa;&#xa;
                    </mxGeometry>
                    &#xa;                    &#xa;                    &#xa;&#xa;&#xa;
                </mxCell>
                &#xa;                &#xa;                &#xa;&#xa;&#xa;
                <mxCell id="4a63a70a29bb4ada-42" style="edgeStyle=orthogonalEdgeStyle;rounded=0;html=1;entryX=0;entryY=0.5;endArrow=none;endFill=0;jettySize=auto;orthogonalLoop=1;fontSize=12;startArrow=ERmandOne;startFill=0;" parent="1" source="4a63a70a29bb4ada-19" target="4a63a70a29bb4ada-18" edge="1">
                    &#xa;                    &#xa;                    &#xa;&#xa;&#xa;
                    <mxGeometry relative="1" as="geometry">
                        &#xa;                        &#xa;                        &#xa;&#xa;&#xa;
                        <Array as="points">
                            &#xa;                            &#xa;                            &#xa;&#xa;&#xa;
                            <mxPoint x="240" y="410"/>
                            &#xa;                            &#xa;                            &#xa;&#xa;&#xa;
                            <mxPoint x="240" y="457"/>
                            &#xa;                            &#xa;                            &#xa;&#xa;&#xa;
                        </Array>
                        &#xa;                        &#xa;                        &#xa;&#xa;&#xa;
                    </mxGeometry>
                    &#xa;                    &#xa;                    &#xa;&#xa;&#xa;
                </mxCell>
                &#xa;                &#xa;                &#xa;&#xa;&#xa;
                <mxCell id="4a63a70a29bb4ada-43" style="edgeStyle=orthogonalEdgeStyle;rounded=0;html=1;exitX=1;exitY=0.5;entryX=0;entryY=0.5;endArrow=ERzeroToMany;endFill=1;jettySize=auto;orthogonalLoop=1;fontSize=12;" parent="1" source="4a63a70a29bb4ada-18" target="4a63a70a29bb4ada-16" edge="1">
                    &#xa;                    &#xa;                    &#xa;&#xa;&#xa;
                    <mxGeometry relative="1" as="geometry">
                        &#xa;                        &#xa;                        &#xa;&#xa;&#xa;
                        <Array as="points">
                            &#xa;                            &#xa;                            &#xa;&#xa;&#xa;
                            <mxPoint x="440" y="457"/>
                            &#xa;                            &#xa;                            &#xa;&#xa;&#xa;
                            <mxPoint x="440" y="517"/>
                            &#xa;                            &#xa;                            &#xa;&#xa;&#xa;
                        </Array>
                        &#xa;                        &#xa;                        &#xa;&#xa;&#xa;
                    </mxGeometry>
                    &#xa;                    &#xa;                    &#xa;&#xa;&#xa;
                </mxCell>
                &#xa;                &#xa;                &#xa;&#xa;&#xa;
                <mxCell id="4a63a70a29bb4ada-44" value="&lt;u&gt;&amp;nbsp;Habit&amp;nbsp;&lt;br&gt;&amp;nbsp;CheckinID&amp;nbsp;&lt;/u&gt;" style="ellipse;whiteSpace=wrap;html=1;aspect=fixed;fontSize=10;fillColor=#dae8fc;strokeColor=#6c8ebf;" parent="1" vertex="1">
                    &#xa;                    &#xa;                    &#xa;&#xa;&#xa;
                    <mxGeometry x="616" y="250" width="66" height="66" as="geometry"/>
                    &#xa;                    &#xa;                    &#xa;&#xa;&#xa;
                </mxCell>
                &#xa;                &#xa;                &#xa;&#xa;&#xa;
                <mxCell id="4a63a70a29bb4ada-45" value="Checkin&lt;br&gt;Date&lt;br&gt;" style="ellipse;whiteSpace=wrap;html=1;aspect=fixed;fontSize=10;fillColor=#dae8fc;strokeColor=#6c8ebf;" parent="1" vertex="1">
                    &#xa;                    &#xa;                    &#xa;&#xa;&#xa;
                    <mxGeometry x="560" y="225" width="49" height="49" as="geometry"/>
                    &#xa;                    &#xa;                    &#xa;&#xa;&#xa;
                </mxCell>
                &#xa;                &#xa;                &#xa;&#xa;&#xa;
                <mxCell id="4a63a70a29bb4ada-46" style="rounded=0;html=1;endArrow=none;endFill=0;jettySize=auto;orthogonalLoop=1;fontSize=12;" parent="1" source="4a63a70a29bb4ada-13" target="4a63a70a29bb4ada-45" edge="1">
                    &#xa;                    &#xa;                    &#xa;&#xa;&#xa;
                    <mxGeometry relative="1" as="geometry"/>
                    &#xa;                    &#xa;                    &#xa;&#xa;&#xa;
                </mxCell>
                &#xa;                &#xa;                &#xa;&#xa;&#xa;
                <mxCell id="4a63a70a29bb4ada-48" style="rounded=0;html=1;endArrow=none;endFill=0;jettySize=auto;orthogonalLoop=1;fontSize=12;" parent="1" source="4a63a70a29bb4ada-8" target="4a63a70a29bb4ada-5" edge="1">
                    &#xa;                    &#xa;                    &#xa;&#xa;&#xa;
                    <mxGeometry relative="1" as="geometry"/>
                    &#xa;                    &#xa;                    &#xa;&#xa;&#xa;
                </mxCell>
                &#xa;                &#xa;                &#xa;&#xa;&#xa;
                <mxCell id="4a63a70a29bb4ada-49" style="rounded=0;html=1;endArrow=none;endFill=0;jettySize=auto;orthogonalLoop=1;fontSize=12;" parent="1" target="4a63a70a29bb4ada-5" edge="1">
                    &#xa;                    &#xa;                    &#xa;&#xa;&#xa;
                    <mxGeometry relative="1" as="geometry">
                        &#xa;                        &#xa;                        &#xa;&#xa;&#xa;
                        <mxPoint x="532.4621577996652" y="118.87085356328134" as="sourcePoint"/>
                        &#xa;                        &#xa;                        &#xa;&#xa;&#xa;
                    </mxGeometry>
                    &#xa;                    &#xa;                    &#xa;&#xa;&#xa;
                </mxCell>
                &#xa;                &#xa;                &#xa;&#xa;&#xa;
                <mxCell id="4a63a70a29bb4ada-51" style="edgeStyle=none;rounded=0;html=1;endArrow=none;endFill=0;jettySize=auto;orthogonalLoop=1;fontSize=12;" parent="1" source="4a63a70a29bb4ada-13" target="4a63a70a29bb4ada-44" edge="1">
                    &#xa;                    &#xa;                    &#xa;&#xa;&#xa;
                    <mxGeometry relative="1" as="geometry"/>
                    &#xa;                    &#xa;                    &#xa;&#xa;&#xa;
                </mxCell>
                &#xa;                &#xa;                &#xa;&#xa;&#xa;
                <mxCell id="4a63a70a29bb4ada-52" style="edgeStyle=none;rounded=0;html=1;endArrow=none;endFill=0;jettySize=auto;orthogonalLoop=1;fontSize=12;" parent="1" source="4a63a70a29bb4ada-20" target="4a63a70a29bb4ada-19" edge="1">
                    &#xa;                    &#xa;                    &#xa;&#xa;&#xa;
                    <mxGeometry relative="1" as="geometry"/>
                    &#xa;                    &#xa;                    &#xa;&#xa;&#xa;
                </mxCell>
                &#xa;                &#xa;                &#xa;&#xa;&#xa;
                <mxCell id="4a63a70a29bb4ada-53" style="edgeStyle=none;rounded=0;html=1;endArrow=none;endFill=0;jettySize=auto;orthogonalLoop=1;fontSize=12;" parent="1" source="4a63a70a29bb4ada-21" target="4a63a70a29bb4ada-19" edge="1">
                    &#xa;                    &#xa;                    &#xa;&#xa;&#xa;
                    <mxGeometry relative="1" as="geometry"/>
                    &#xa;                    &#xa;                    &#xa;&#xa;&#xa;
                </mxCell>
                &#xa;                &#xa;                &#xa;&#xa;&#xa;
                <mxCell id="4a63a70a29bb4ada-54" style="edgeStyle=none;rounded=0;html=1;endArrow=none;endFill=0;jettySize=auto;orthogonalLoop=1;fontSize=12;" parent="1" source="4a63a70a29bb4ada-2" target="4cd4486c729dc68b-1" edge="1">
                    &#xa;                    &#xa;                    &#xa;&#xa;&#xa;
                    <mxGeometry relative="1" as="geometry"/>
                    &#xa;                    &#xa;                    &#xa;&#xa;&#xa;
                </mxCell>
                &#xa;                &#xa;                &#xa;&#xa;&#xa;
                <mxCell id="4a63a70a29bb4ada-55" style="edgeStyle=none;rounded=0;html=1;endArrow=none;endFill=0;jettySize=auto;orthogonalLoop=1;fontSize=12;" parent="1" source="4a63a70a29bb4ada-1" target="4cd4486c729dc68b-1" edge="1">
                    &#xa;                    &#xa;                    &#xa;&#xa;&#xa;
                    <mxGeometry relative="1" as="geometry"/>
                    &#xa;                    &#xa;                    &#xa;&#xa;&#xa;
                </mxCell>
                &#xa;                &#xa;                &#xa;&#xa;&#xa;
                <mxCell id="4a63a70a29bb4ada-56" style="edgeStyle=none;rounded=0;html=1;endArrow=none;endFill=0;jettySize=auto;orthogonalLoop=1;fontSize=12;" parent="1" source="4a63a70a29bb4ada-3" target="4cd4486c729dc68b-1" edge="1">
                    &#xa;                    &#xa;                    &#xa;&#xa;&#xa;
                    <mxGeometry relative="1" as="geometry">
                        &#xa;                        &#xa;                        &#xa;&#xa;&#xa;
                        <mxPoint x="110" y="260" as="sourcePoint"/>
                        &#xa;                        &#xa;                        &#xa;&#xa;&#xa;
                    </mxGeometry>
                    &#xa;                    &#xa;                    &#xa;&#xa;&#xa;
                </mxCell>
                &#xa;                &#xa;                &#xa;&#xa;&#xa;
                <mxCell id="4a63a70a29bb4ada-58" value="&lt;u&gt;&amp;nbsp;CommentID&amp;nbsp;&lt;/u&gt;&lt;br&gt;" style="ellipse;whiteSpace=wrap;html=1;aspect=fixed;fontSize=10;fillColor=#dae8fc;strokeColor=#6c8ebf;" parent="1" vertex="1">
                    &#xa;                    &#xa;                    &#xa;&#xa;&#xa;
                    <mxGeometry x="575" y="440" width="66" height="66" as="geometry"/>
                    &#xa;                    &#xa;                    &#xa;&#xa;&#xa;
                </mxCell>
                &#xa;                &#xa;                &#xa;&#xa;&#xa;
                <mxCell id="4a63a70a29bb4ada-59" value="Comment&lt;br&gt;Text&lt;br&gt;" style="ellipse;whiteSpace=wrap;html=1;aspect=fixed;fontSize=10;fillColor=#dae8fc;strokeColor=#6c8ebf;" parent="1" vertex="1">
                    &#xa;                    &#xa;                    &#xa;&#xa;&#xa;
                    <mxGeometry x="608" y="513" width="49" height="49" as="geometry"/>
                    &#xa;                    &#xa;                    &#xa;&#xa;&#xa;
                </mxCell>
                &#xa;                &#xa;                &#xa;&#xa;&#xa;
                <mxCell id="4a63a70a29bb4ada-60" value="Comment&lt;br&gt;Date&lt;br&gt;" style="ellipse;whiteSpace=wrap;html=1;aspect=fixed;fontSize=10;fillColor=#dae8fc;strokeColor=#6c8ebf;" parent="1" vertex="1">
                    &#xa;                    &#xa;                    &#xa;&#xa;&#xa;
                    <mxGeometry x="559" y="562" width="49" height="49" as="geometry"/>
                    &#xa;                    &#xa;                    &#xa;&#xa;&#xa;
                </mxCell>
                &#xa;                &#xa;                &#xa;&#xa;&#xa;
                <mxCell id="4a63a70a29bb4ada-61" value="&lt;i&gt;UserID&lt;/i&gt;&lt;br&gt;" style="ellipse;whiteSpace=wrap;html=1;aspect=fixed;fontSize=9;fillColor=#dae8fc;strokeColor=#6c8ebf;" parent="1" vertex="1">
                    &#xa;                    &#xa;                    &#xa;&#xa;&#xa;
                    <mxGeometry x="501" y="570" width="49" height="49" as="geometry"/>
                    &#xa;                    &#xa;                    &#xa;&#xa;&#xa;
                </mxCell>
                &#xa;                &#xa;                &#xa;&#xa;&#xa;
                <mxCell id="4a63a70a29bb4ada-62" style="rounded=0;html=1;startArrow=none;startFill=0;endArrow=none;endFill=0;jettySize=auto;orthogonalLoop=1;fontSize=10;" parent="1" source="4a63a70a29bb4ada-58" target="4a63a70a29bb4ada-16" edge="1">
                    &#xa;                    &#xa;                    &#xa;&#xa;&#xa;
                    <mxGeometry relative="1" as="geometry"/>
                    &#xa;                    &#xa;                    &#xa;&#xa;&#xa;
                </mxCell>
                &#xa;                &#xa;                &#xa;&#xa;&#xa;
                <mxCell id="4a63a70a29bb4ada-63" style="edgeStyle=none;rounded=0;html=1;startArrow=none;startFill=0;endArrow=none;endFill=0;jettySize=auto;orthogonalLoop=1;fontSize=10;" parent="1" source="4a63a70a29bb4ada-59" target="4a63a70a29bb4ada-16" edge="1">
                    &#xa;                    &#xa;                    &#xa;&#xa;&#xa;
                    <mxGeometry relative="1" as="geometry"/>
                    &#xa;                    &#xa;                    &#xa;&#xa;&#xa;
                </mxCell>
                &#xa;                &#xa;                &#xa;&#xa;&#xa;
                <mxCell id="4a63a70a29bb4ada-64" style="edgeStyle=none;rounded=0;html=1;startArrow=none;startFill=0;endArrow=none;endFill=0;jettySize=auto;orthogonalLoop=1;fontSize=10;" parent="1" source="4a63a70a29bb4ada-60" target="4a63a70a29bb4ada-16" edge="1">
                    &#xa;                    &#xa;                    &#xa;&#xa;&#xa;
                    <mxGeometry relative="1" as="geometry"/>
                    &#xa;                    &#xa;                    &#xa;&#xa;&#xa;
                </mxCell>
                &#xa;                &#xa;                &#xa;&#xa;&#xa;
                <mxCell id="4a63a70a29bb4ada-65" style="edgeStyle=none;rounded=0;html=1;startArrow=none;startFill=0;endArrow=none;endFill=0;jettySize=auto;orthogonalLoop=1;fontSize=10;" parent="1" source="4a63a70a29bb4ada-61" target="4a63a70a29bb4ada-16" edge="1">
                    &#xa;                    &#xa;                    &#xa;&#xa;&#xa;
                    <mxGeometry relative="1" as="geometry"/>
                    &#xa;                    &#xa;                    &#xa;&#xa;&#xa;
                </mxCell>
                &#xa;                &#xa;                &#xa;&#xa;&#xa;
                <mxCell id="4a63a70a29bb4ada-7" value="HabitNum" style="ellipse;whiteSpace=wrap;html=1;aspect=fixed;fontSize=10;fillColor=#dae8fc;strokeColor=#6c8ebf;dashed=1;" parent="1" vertex="1">
                    &#xa;                    &#xa;                    &#xa;&#xa;&#xa;
                    <mxGeometry x="190" y="94" width="50" height="50" as="geometry"/>
                    &#xa;                    &#xa;                    &#xa;&#xa;&#xa;
                </mxCell>
                &#xa;                &#xa;                &#xa;&#xa;&#xa;
                <mxCell id="4a63a70a29bb4ada-11" style="rounded=0;html=1;startArrow=none;startFill=0;endArrow=none;endFill=0;jettySize=auto;orthogonalLoop=1;fontSize=10;" parent="1" source="4a63a70a29bb4ada-7" target="4cd4486c729dc68b-1" edge="1">
                    &#xa;                    &#xa;                    &#xa;&#xa;&#xa;
                    <mxGeometry relative="1" as="geometry"/>
                    &#xa;                    &#xa;                    &#xa;&#xa;&#xa;
                </mxCell>
                &#xa;                &#xa;                &#xa;&#xa;&#xa;
                <mxCell id="113bda5a66023eaa-1" value="&lt;i&gt;CoachID&lt;/i&gt;&lt;br&gt;" style="ellipse;whiteSpace=wrap;html=1;aspect=fixed;fontSize=9;fillColor=#dae8fc;strokeColor=#6c8ebf;" parent="1" vertex="1">
                    &#xa;                    &#xa;                    &#xa;&#xa;&#xa;
                    <mxGeometry x="441" y="562" width="49" height="49" as="geometry"/>
                    &#xa;                    &#xa;                    &#xa;&#xa;&#xa;
                </mxCell>
                &#xa;                &#xa;                &#xa;&#xa;&#xa;
                <mxCell id="113bda5a66023eaa-2" style="rounded=0;html=1;startArrow=none;startFill=0;endArrow=none;endFill=0;jettySize=auto;orthogonalLoop=1;strokeColor=#000066;fontSize=13;" parent="1" source="113bda5a66023eaa-1" target="4a63a70a29bb4ada-16" edge="1">
                    &#xa;                    &#xa;                    &#xa;&#xa;&#xa;
                    <mxGeometry relative="1" as="geometry"/>
                    &#xa;                    &#xa;                    &#xa;&#xa;&#xa;
                </mxCell>
                &#xa;                &#xa;                &#xa;&#xa;&#xa;
                <mxCell id="5ecfb9fce94ea102-1" value="&lt;i&gt;HabitID&lt;/i&gt;&lt;br&gt;" style="ellipse;whiteSpace=wrap;html=1;aspect=fixed;fontSize=10;fillColor=#dae8fc;strokeColor=#6c8ebf;" parent="1" vertex="1">
                    &#xa;                    &#xa;                    &#xa;&#xa;&#xa;
                    <mxGeometry x="616" y="321" width="49" height="49" as="geometry"/>
                    &#xa;                    &#xa;                    &#xa;&#xa;&#xa;
                </mxCell>
                &#xa;                &#xa;                &#xa;&#xa;&#xa;
                <mxCell id="5ecfb9fce94ea102-2" style="rounded=0;html=1;startArrow=none;startFill=0;endArrow=none;endFill=0;jettySize=auto;orthogonalLoop=1;strokeColor=#000066;fontSize=13;" parent="1" source="5ecfb9fce94ea102-1" target="4a63a70a29bb4ada-13" edge="1">
                    &#xa;                    &#xa;                    &#xa;&#xa;&#xa;
                    <mxGeometry relative="1" as="geometry"/>
                    &#xa;                    &#xa;                    &#xa;&#xa;&#xa;
                </mxCell>
                &#xa;                &#xa;                &#xa;&#xa;&#xa;
                <mxCell id="5ecfb9fce94ea102-3" style="edgeStyle=none;rounded=0;html=1;exitX=0.5;exitY=1;entryX=0.5;entryY=0;startArrow=ERmandOne;startFill=0;endArrow=ERzeroToMany;endFill=1;jettySize=auto;orthogonalLoop=1;strokeColor=#000066;fontSize=13;" parent="1" source="4a63a70a29bb4ada-5" target="4a63a70a29bb4ada-13" edge="1">
                    &#xa;                    &#xa;                    &#xa;&#xa;&#xa;
                    <mxGeometry relative="1" as="geometry"/>
                    &#xa;                    &#xa;                    &#xa;&#xa;&#xa;
                </mxCell>
                &#xa;                &#xa;                &#xa;&#xa;&#xa;
                <mxCell id="5ecfb9fce94ea102-7" value="&lt;i&gt;Habit&lt;br&gt;CheckinID&lt;/i&gt;&lt;br&gt;" style="ellipse;whiteSpace=wrap;html=1;aspect=fixed;fontSize=9;fillColor=#dae8fc;strokeColor=#6c8ebf;" parent="1" vertex="1">
                    &#xa;                    &#xa;                    &#xa;&#xa;&#xa;
                    <mxGeometry x="401" y="521" width="49" height="49" as="geometry"/>
                    &#xa;                    &#xa;                    &#xa;&#xa;&#xa;
                </mxCell>
                &#xa;                &#xa;                &#xa;&#xa;&#xa;
                <mxCell id="5ecfb9fce94ea102-8" style="edgeStyle=none;rounded=0;html=1;startArrow=none;startFill=0;endArrow=none;endFill=0;jettySize=auto;orthogonalLoop=1;strokeColor=#000066;fontSize=13;" parent="1" source="5ecfb9fce94ea102-7" target="4a63a70a29bb4ada-16" edge="1">
                    &#xa;                    &#xa;                    &#xa;&#xa;&#xa;
                    <mxGeometry relative="1" as="geometry"/>
                    &#xa;                    &#xa;                    &#xa;&#xa;&#xa;
                </mxCell>
                &#xa;                &#xa;                &#xa;&#xa;&#xa;
                <mxCell id="5ecfb9fce94ea102-9" value="&lt;i&gt;UserID&lt;/i&gt;&lt;br&gt;" style="ellipse;whiteSpace=wrap;html=1;aspect=fixed;fontSize=10;fillColor=#dae8fc;strokeColor=#6c8ebf;" parent="1" vertex="1">
                    &#xa;                    &#xa;                    &#xa;&#xa;&#xa;
                    <mxGeometry x="567" y="359" width="49" height="49" as="geometry"/>
                    &#xa;                    &#xa;                    &#xa;&#xa;&#xa;
                </mxCell>
                &#xa;                &#xa;                &#xa;&#xa;&#xa;
                <mxCell id="5ecfb9fce94ea102-10" style="edgeStyle=none;rounded=0;html=1;startArrow=none;startFill=0;endArrow=none;endFill=0;jettySize=auto;orthogonalLoop=1;strokeColor=#000066;fontSize=13;" parent="1" source="5ecfb9fce94ea102-9" target="4a63a70a29bb4ada-13" edge="1">
                    &#xa;                    &#xa;                    &#xa;&#xa;&#xa;
                    <mxGeometry relative="1" as="geometry"/>
                    &#xa;                    &#xa;                    &#xa;&#xa;&#xa;
                </mxCell>
                &#xa;                &#xa;                &#xa;&#xa;&#xa;
                <mxCell id="61c8091a879e1e43-3" value="" style="group" parent="1" vertex="1" connectable="0">
                    &#xa;                    &#xa;                    &#xa;&#xa;&#xa;
                    <mxGeometry x="312" y="141" width="74" height="74" as="geometry"/>
                    &#xa;                    &#xa;                    &#xa;&#xa;&#xa;
                </mxCell>
                &#xa;                &#xa;                &#xa;&#xa;&#xa;
                <mxCell id="61c8091a879e1e43-1" value="Entity" style="strokeWidth=2;whiteSpace=wrap;html=1;align=center;fontSize=14;fillColor=#d5e8d4;strokeColor=#82b366;" parent="61c8091a879e1e43-3" vertex="1">
                    &#xa;                    &#xa;                    &#xa;&#xa;&#xa;
                    <mxGeometry width="74" height="74" as="geometry"/>
                    &#xa;                    &#xa;                    &#xa;&#xa;&#xa;
                </mxCell>
                &#xa;                &#xa;                &#xa;&#xa;&#xa;
                <mxCell id="4a63a70a29bb4ada-4" value="Has" style="shape=rhombus;strokeWidth=2;fontSize=13;perimeter=rhombusPerimeter;whiteSpace=wrap;html=1;align=center;fillColor=#d5e8d4;strokeColor=#82b366;" parent="61c8091a879e1e43-3" vertex="1">
                    &#xa;                    &#xa;                    &#xa;&#xa;&#xa;
                    <mxGeometry x="2" y="2" width="70" height="70" as="geometry"/>
                    &#xa;                    &#xa;                    &#xa;&#xa;&#xa;
                </mxCell>
                &#xa;                &#xa;                &#xa;&#xa;&#xa;
            </root>
            &#xa;            &#xa;            &#xa;&#xa;&#xa;
        </mxGraphModel>
        &#xa;        &#xa;        &#xa;&#xa;&#xa;
    </diagram>
    <diagram id="cdb5e136-1861-7ef1-5e76-c57f7e18aa8d" name="ERD Data Structure - Habit Tracker App">
        &#xa;        &#xa;        &#xa;&#xa;&#xa;
        <mxGraphModel dx="1422" dy="762" grid="1" gridSize="10" guides="1" tooltips="1" connect="1" arrows="1" fold="1" page="1" pageScale="1" pageWidth="1100" pageHeight="850" math="0" shadow="0">
            &#xa;            &#xa;            &#xa;&#xa;&#xa;
            <root>
                &#xa;                &#xa;                &#xa;&#xa;&#xa;
                <mxCell id="0"/>
                &#xa;                &#xa;                &#xa;&#xa;&#xa;
                <mxCell id="1" parent="0"/>
                &#xa;                &#xa;                &#xa;&#xa;&#xa;
                <mxCell id="4a63a70a29bb4ada-31" value="" style="edgeStyle=none;rounded=0;html=1;startArrow=ERzeroToMany;startFill=1;endArrow=ERzeroToOne;endFill=1;jettySize=auto;orthogonalLoop=1;fontSize=10;strokeColor=#000066;" parent="1" source="4a63a70a29bb4ada-1" target="4a63a70a29bb4ada-18" edge="1">
                    &#xa;                    &#xa;                    &#xa;&#xa;&#xa;
                    <mxGeometry relative="1" as="geometry"/>
                    &#xa;                    &#xa;                    &#xa;&#xa;&#xa;
                </mxCell>
                &#xa;                &#xa;                &#xa;&#xa;&#xa;
                <mxCell id="4a63a70a29bb4ada-45" value="" style="edgeStyle=none;rounded=0;html=1;startArrow=ERoneToMany;startFill=0;endArrow=ERzeroToMany;endFill=1;jettySize=auto;orthogonalLoop=1;fontSize=10;strokeColor=#000066;" parent="1" source="4a63a70a29bb4ada-1" target="4a63a70a29bb4ada-32" edge="1">
                    &#xa;                    &#xa;                    &#xa;&#xa;&#xa;
                    <mxGeometry relative="1" as="geometry"/>
                    &#xa;                    &#xa;                    &#xa;&#xa;&#xa;
                </mxCell>
                &#xa;                &#xa;                &#xa;&#xa;&#xa;
                <mxCell id="4a63a70a29bb4ada-1" value="Users" style="swimlane;fontStyle=0;childLayout=stackLayout;horizontal=1;startSize=26;fillColor=#ffe6cc;horizontalStack=0;resizeParent=1;resizeParentMax=0;resizeLast=0;collapsible=1;marginBottom=0;swimlaneFillColor=#ffffff;align=center;strokeWidth=1;fontSize=13;strokeColor=#d79b00;" parent="1" vertex="1">
                    &#xa;                    &#xa;                    &#xa;&#xa;&#xa;
                    <mxGeometry x="80" y="41" width="160" height="144" as="geometry"/>
                    &#xa;                    &#xa;                    &#xa;&#xa;&#xa;
                </mxCell>
                &#xa;                &#xa;                &#xa;&#xa;&#xa;
                <mxCell id="4a63a70a29bb4ada-2" value="UserID" style="shape=partialRectangle;top=0;left=0;right=0;bottom=1;align=left;verticalAlign=middle;fillColor=none;spacingLeft=34;spacingRight=4;overflow=hidden;rotatable=0;points=[[0,0.5],[1,0.5]];portConstraint=eastwest;dropTarget=0;fontStyle=5;" parent="4a63a70a29bb4ada-1" vertex="1">
                    &#xa;                    &#xa;                    &#xa;&#xa;&#xa;
                    <mxGeometry y="26" width="160" height="30" as="geometry"/>
                    &#xa;                    &#xa;                    &#xa;&#xa;&#xa;
                </mxCell>
                &#xa;                &#xa;                &#xa;&#xa;&#xa;
                <mxCell id="4a63a70a29bb4ada-3" value="PK" style="shape=partialRectangle;top=0;left=0;bottom=0;fillColor=none;align=left;verticalAlign=middle;spacingLeft=4;spacingRight=4;overflow=hidden;rotatable=0;points=[];portConstraint=eastwest;part=1;fontStyle=1" parent="4a63a70a29bb4ada-2" vertex="1" connectable="0">
                    &#xa;                    &#xa;                    &#xa;&#xa;&#xa;
                    <mxGeometry width="30" height="30" as="geometry"/>
                    &#xa;                    &#xa;                    &#xa;&#xa;&#xa;
                </mxCell>
                &#xa;                &#xa;                &#xa;&#xa;&#xa;
                <mxCell id="4a63a70a29bb4ada-6" value="CoachID" style="shape=partialRectangle;top=0;left=0;right=0;bottom=0;align=left;verticalAlign=top;fillColor=none;spacingLeft=34;spacingRight=4;overflow=hidden;rotatable=0;points=[[0,0.5],[1,0.5]];portConstraint=eastwest;dropTarget=0;fontStyle=2" parent="4a63a70a29bb4ada-1" vertex="1">
                    &#xa;                    &#xa;                    &#xa;&#xa;&#xa;
                    <mxGeometry y="56" width="160" height="26" as="geometry"/>
                    &#xa;                    &#xa;                    &#xa;&#xa;&#xa;
                </mxCell>
                &#xa;                &#xa;                &#xa;&#xa;&#xa;
                <mxCell id="4a63a70a29bb4ada-7" value="FK" style="shape=partialRectangle;top=0;left=0;bottom=0;fillColor=none;align=left;verticalAlign=top;spacingLeft=4;spacingRight=4;overflow=hidden;rotatable=0;points=[];portConstraint=eastwest;part=1;fontStyle=2" parent="4a63a70a29bb4ada-6" vertex="1" connectable="0">
                    &#xa;                    &#xa;                    &#xa;&#xa;&#xa;
                    <mxGeometry width="30" height="26" as="geometry"/>
                    &#xa;                    &#xa;                    &#xa;&#xa;&#xa;
                </mxCell>
                &#xa;                &#xa;                &#xa;&#xa;&#xa;
                <mxCell id="5ecfb9fce94ea102-8" value="Name" style="shape=partialRectangle;top=0;left=0;right=0;bottom=0;align=left;verticalAlign=top;fillColor=none;spacingLeft=34;spacingRight=4;overflow=hidden;rotatable=0;points=[[0,0.5],[1,0.5]];portConstraint=eastwest;dropTarget=0;" parent="4a63a70a29bb4ada-1" vertex="1">
                    &#xa;                    &#xa;                    &#xa;&#xa;&#xa;
                    <mxGeometry y="82" width="160" height="26" as="geometry"/>
                    &#xa;                    &#xa;                    &#xa;&#xa;&#xa;
                </mxCell>
                &#xa;                &#xa;                &#xa;&#xa;&#xa;
                <mxCell id="5ecfb9fce94ea102-9" value="" style="shape=partialRectangle;top=0;left=0;bottom=0;fillColor=none;align=left;verticalAlign=top;spacingLeft=4;spacingRight=4;overflow=hidden;rotatable=0;points=[];portConstraint=eastwest;part=1;" parent="5ecfb9fce94ea102-8" vertex="1" connectable="0">
                    &#xa;                    &#xa;                    &#xa;&#xa;&#xa;
                    <mxGeometry width="30" height="26" as="geometry"/>
                    &#xa;                    &#xa;                    &#xa;&#xa;&#xa;
                </mxCell>
                &#xa;                &#xa;                &#xa;&#xa;&#xa;
                <mxCell id="4a63a70a29bb4ada-16" value="HabitNum" style="shape=partialRectangle;top=0;left=0;right=0;bottom=0;align=left;verticalAlign=top;fillColor=none;spacingLeft=34;spacingRight=4;overflow=hidden;rotatable=0;points=[[0,0.5],[1,0.5]];portConstraint=eastwest;dropTarget=0;" parent="4a63a70a29bb4ada-1" vertex="1">
                    &#xa;                    &#xa;                    &#xa;&#xa;&#xa;
                    <mxGeometry y="108" width="160" height="26" as="geometry"/>
                    &#xa;                    &#xa;                    &#xa;&#xa;&#xa;
                </mxCell>
                &#xa;                &#xa;                &#xa;&#xa;&#xa;
                <mxCell id="4a63a70a29bb4ada-17" value="" style="shape=partialRectangle;top=0;left=0;bottom=0;fillColor=none;align=left;verticalAlign=top;spacingLeft=4;spacingRight=4;overflow=hidden;rotatable=0;points=[];portConstraint=eastwest;part=1;" parent="4a63a70a29bb4ada-16" vertex="1" connectable="0">
                    &#xa;                    &#xa;                    &#xa;&#xa;&#xa;
                    <mxGeometry width="30" height="26" as="geometry"/>
                    &#xa;                    &#xa;                    &#xa;&#xa;&#xa;
                </mxCell>
                &#xa;                &#xa;                &#xa;&#xa;&#xa;
                <mxCell id="4a63a70a29bb4ada-10" value="" style="shape=partialRectangle;top=0;left=0;right=0;bottom=0;align=left;verticalAlign=top;fillColor=none;spacingLeft=34;spacingRight=4;overflow=hidden;rotatable=0;points=[[0,0.5],[1,0.5]];portConstraint=eastwest;dropTarget=0;" parent="4a63a70a29bb4ada-1" vertex="1">
                    &#xa;                    &#xa;                    &#xa;&#xa;&#xa;
                    <mxGeometry y="134" width="160" height="10" as="geometry"/>
                    &#xa;                    &#xa;                    &#xa;&#xa;&#xa;
                </mxCell>
                &#xa;                &#xa;                &#xa;&#xa;&#xa;
                <mxCell id="4a63a70a29bb4ada-11" value="" style="shape=partialRectangle;top=0;left=0;bottom=0;fillColor=none;align=left;verticalAlign=top;spacingLeft=4;spacingRight=4;overflow=hidden;rotatable=0;points=[];portConstraint=eastwest;part=1;" parent="4a63a70a29bb4ada-10" vertex="1" connectable="0">
                    &#xa;                    &#xa;                    &#xa;&#xa;&#xa;
                    <mxGeometry width="30" height="10" as="geometry"/>
                    &#xa;                    &#xa;                    &#xa;&#xa;&#xa;
                </mxCell>
                &#xa;                &#xa;                &#xa;&#xa;&#xa;
                <mxCell id="4a63a70a29bb4ada-32" value="Habits" style="swimlane;fontStyle=0;childLayout=stackLayout;horizontal=1;startSize=26;fillColor=#FFE6CC;horizontalStack=0;resizeParent=1;resizeParentMax=0;resizeLast=0;collapsible=1;marginBottom=0;swimlaneFillColor=#ffffff;align=center;strokeWidth=1;fontSize=13;strokeColor=#d79b00;" parent="1" vertex="1">
                    &#xa;                    &#xa;                    &#xa;&#xa;&#xa;
                    <mxGeometry x="429" y="67" width="160" height="92" as="geometry"/>
                    &#xa;                    &#xa;                    &#xa;&#xa;&#xa;
                </mxCell>
                &#xa;                &#xa;                &#xa;&#xa;&#xa;
                <mxCell id="4a63a70a29bb4ada-33" value="HabitID" style="shape=partialRectangle;top=0;left=0;right=0;bottom=1;align=left;verticalAlign=middle;fillColor=none;spacingLeft=34;spacingRight=4;overflow=hidden;rotatable=0;points=[[0,0.5],[1,0.5]];portConstraint=eastwest;dropTarget=0;fontStyle=5;" parent="4a63a70a29bb4ada-32" vertex="1">
                    &#xa;                    &#xa;                    &#xa;&#xa;&#xa;
                    <mxGeometry y="26" width="160" height="30" as="geometry"/>
                    &#xa;                    &#xa;                    &#xa;&#xa;&#xa;
                </mxCell>
                &#xa;                &#xa;                &#xa;&#xa;&#xa;
                <mxCell id="4a63a70a29bb4ada-34" value="PK" style="shape=partialRectangle;top=0;left=0;bottom=0;fillColor=none;align=left;verticalAlign=middle;spacingLeft=4;spacingRight=4;overflow=hidden;rotatable=0;points=[];portConstraint=eastwest;part=1;fontStyle=1" parent="4a63a70a29bb4ada-33" vertex="1" connectable="0">
                    &#xa;                    &#xa;                    &#xa;&#xa;&#xa;
                    <mxGeometry width="30" height="30" as="geometry"/>
                    &#xa;                    &#xa;                    &#xa;&#xa;&#xa;
                </mxCell>
                &#xa;                &#xa;                &#xa;&#xa;&#xa;
                <mxCell id="4a63a70a29bb4ada-37" value="HabitName" style="shape=partialRectangle;top=0;left=0;right=0;bottom=0;align=left;verticalAlign=top;fillColor=none;spacingLeft=34;spacingRight=4;overflow=hidden;rotatable=0;points=[[0,0.5],[1,0.5]];portConstraint=eastwest;dropTarget=0;" parent="4a63a70a29bb4ada-32" vertex="1">
                    &#xa;                    &#xa;                    &#xa;&#xa;&#xa;
                    <mxGeometry y="56" width="160" height="26" as="geometry"/>
                    &#xa;                    &#xa;                    &#xa;&#xa;&#xa;
                </mxCell>
                &#xa;                &#xa;                &#xa;&#xa;&#xa;
                <mxCell id="4a63a70a29bb4ada-38" value="" style="shape=partialRectangle;top=0;left=0;bottom=0;fillColor=none;align=left;verticalAlign=top;spacingLeft=4;spacingRight=4;overflow=hidden;rotatable=0;points=[];portConstraint=eastwest;part=1;" parent="4a63a70a29bb4ada-37" vertex="1" connectable="0">
                    &#xa;                    &#xa;                    &#xa;&#xa;&#xa;
                    <mxGeometry width="30" height="26" as="geometry"/>
                    &#xa;                    &#xa;                    &#xa;&#xa;&#xa;
                </mxCell>
                &#xa;                &#xa;                &#xa;&#xa;&#xa;
                <mxCell id="4a63a70a29bb4ada-43" value="" style="shape=partialRectangle;top=0;left=0;right=0;bottom=0;align=left;verticalAlign=top;fillColor=none;spacingLeft=34;spacingRight=4;overflow=hidden;rotatable=0;points=[[0,0.5],[1,0.5]];portConstraint=eastwest;dropTarget=0;" parent="4a63a70a29bb4ada-32" vertex="1">
                    &#xa;                    &#xa;                    &#xa;&#xa;&#xa;
                    <mxGeometry y="82" width="160" height="10" as="geometry"/>
                    &#xa;                    &#xa;                    &#xa;&#xa;&#xa;
                </mxCell>
                &#xa;                &#xa;                &#xa;&#xa;&#xa;
                <mxCell id="4a63a70a29bb4ada-44" value="" style="shape=partialRectangle;top=0;left=0;bottom=0;fillColor=none;align=left;verticalAlign=top;spacingLeft=4;spacingRight=4;overflow=hidden;rotatable=0;points=[];portConstraint=eastwest;part=1;" parent="4a63a70a29bb4ada-43" vertex="1" connectable="0">
                    &#xa;                    &#xa;                    &#xa;&#xa;&#xa;
                    <mxGeometry width="30" height="10" as="geometry"/>
                    &#xa;                    &#xa;                    &#xa;&#xa;&#xa;
                </mxCell>
                &#xa;                &#xa;                &#xa;&#xa;&#xa;
                <mxCell id="4a63a70a29bb4ada-18" value="Coaches" style="swimlane;fontStyle=0;childLayout=stackLayout;horizontal=1;startSize=26;fillColor=#ffe6cc;horizontalStack=0;resizeParent=1;resizeParentMax=0;resizeLast=0;collapsible=1;marginBottom=0;swimlaneFillColor=#ffffff;align=center;strokeWidth=1;fontSize=13;strokeColor=#d79b00;" parent="1" vertex="1">
                    &#xa;                    &#xa;                    &#xa;&#xa;&#xa;
                    <mxGeometry x="82" y="280" width="160" height="92" as="geometry"/>
                    &#xa;                    &#xa;                    &#xa;&#xa;&#xa;
                </mxCell>
                &#xa;                &#xa;                &#xa;&#xa;&#xa;
                <mxCell id="4a63a70a29bb4ada-19" value="CoachID" style="shape=partialRectangle;top=0;left=0;right=0;bottom=1;align=left;verticalAlign=middle;fillColor=none;spacingLeft=34;spacingRight=4;overflow=hidden;rotatable=0;points=[[0,0.5],[1,0.5]];portConstraint=eastwest;dropTarget=0;fontStyle=5;" parent="4a63a70a29bb4ada-18" vertex="1">
                    &#xa;                    &#xa;                    &#xa;&#xa;&#xa;
                    <mxGeometry y="26" width="160" height="30" as="geometry"/>
                    &#xa;                    &#xa;                    &#xa;&#xa;&#xa;
                </mxCell>
                &#xa;                &#xa;                &#xa;&#xa;&#xa;
                <mxCell id="4a63a70a29bb4ada-20" value="PK" style="shape=partialRectangle;top=0;left=0;bottom=0;fillColor=none;align=left;verticalAlign=middle;spacingLeft=4;spacingRight=4;overflow=hidden;rotatable=0;points=[];portConstraint=eastwest;part=1;" parent="4a63a70a29bb4ada-19" vertex="1" connectable="0">
                    &#xa;                    &#xa;                    &#xa;&#xa;&#xa;
                    <mxGeometry width="30" height="30" as="geometry"/>
                    &#xa;                    &#xa;                    &#xa;&#xa;&#xa;
                </mxCell>
                &#xa;                &#xa;                &#xa;&#xa;&#xa;
                <mxCell id="4a63a70a29bb4ada-23" value="Name" style="shape=partialRectangle;top=0;left=0;right=0;bottom=0;align=left;verticalAlign=top;fillColor=none;spacingLeft=34;spacingRight=4;overflow=hidden;rotatable=0;points=[[0,0.5],[1,0.5]];portConstraint=eastwest;dropTarget=0;" parent="4a63a70a29bb4ada-18" vertex="1">
                    &#xa;                    &#xa;                    &#xa;&#xa;&#xa;
                    <mxGeometry y="56" width="160" height="26" as="geometry"/>
                    &#xa;                    &#xa;                    &#xa;&#xa;&#xa;
                </mxCell>
                &#xa;                &#xa;                &#xa;&#xa;&#xa;
                <mxCell id="4a63a70a29bb4ada-24" value="" style="shape=partialRectangle;top=0;left=0;bottom=0;fillColor=none;align=left;verticalAlign=top;spacingLeft=4;spacingRight=4;overflow=hidden;rotatable=0;points=[];portConstraint=eastwest;part=1;" parent="4a63a70a29bb4ada-23" vertex="1" connectable="0">
                    &#xa;                    &#xa;                    &#xa;&#xa;&#xa;
                    <mxGeometry width="30" height="26" as="geometry"/>
                    &#xa;                    &#xa;                    &#xa;&#xa;&#xa;
                </mxCell>
                &#xa;                &#xa;                &#xa;&#xa;&#xa;
                <mxCell id="4a63a70a29bb4ada-29" value="" style="shape=partialRectangle;top=0;left=0;right=0;bottom=0;align=left;verticalAlign=top;fillColor=none;spacingLeft=34;spacingRight=4;overflow=hidden;rotatable=0;points=[[0,0.5],[1,0.5]];portConstraint=eastwest;dropTarget=0;" parent="4a63a70a29bb4ada-18" vertex="1">
                    &#xa;                    &#xa;                    &#xa;&#xa;&#xa;
                    <mxGeometry y="82" width="160" height="10" as="geometry"/>
                    &#xa;                    &#xa;                    &#xa;&#xa;&#xa;
                </mxCell>
                &#xa;                &#xa;                &#xa;&#xa;&#xa;
                <mxCell id="4a63a70a29bb4ada-30" value="" style="shape=partialRectangle;top=0;left=0;bottom=0;fillColor=none;align=left;verticalAlign=top;spacingLeft=4;spacingRight=4;overflow=hidden;rotatable=0;points=[];portConstraint=eastwest;part=1;" parent="4a63a70a29bb4ada-29" vertex="1" connectable="0">
                    &#xa;                    &#xa;                    &#xa;&#xa;&#xa;
                    <mxGeometry width="30" height="10" as="geometry"/>
                    &#xa;                    &#xa;                    &#xa;&#xa;&#xa;
                </mxCell>
                &#xa;                &#xa;                &#xa;&#xa;&#xa;
                <mxCell id="4a63a70a29bb4ada-48" value="" style="edgeStyle=none;rounded=0;html=1;startArrow=ERmandOne;startFill=0;endArrow=ERzeroToMany;endFill=1;jettySize=auto;orthogonalLoop=1;strokeColor=#000066;fontSize=10;" parent="1" source="4a63a70a29bb4ada-12" target="4a63a70a29bb4ada-26" edge="1">
                    &#xa;                    &#xa;                    &#xa;&#xa;&#xa;
                    <mxGeometry relative="1" as="geometry"/>
                    &#xa;                    &#xa;                    &#xa;&#xa;&#xa;
                </mxCell>
                &#xa;                &#xa;                &#xa;&#xa;&#xa;
                <mxCell id="4a63a70a29bb4ada-12" value="Checkins" style="swimlane;fontStyle=0;childLayout=stackLayout;horizontal=1;startSize=26;fillColor=#ffe6cc;horizontalStack=0;resizeParent=1;resizeParentMax=0;resizeLast=0;collapsible=1;marginBottom=0;swimlaneFillColor=#ffffff;align=center;strokeWidth=1;fontSize=13;strokeColor=#d79b00;" parent="1" vertex="1">
                    &#xa;                    &#xa;                    &#xa;&#xa;&#xa;
                    <mxGeometry x="655" y="67" width="160" height="134" as="geometry"/>
                    &#xa;                    &#xa;                    &#xa;&#xa;&#xa;
                </mxCell>
                &#xa;                &#xa;                &#xa;&#xa;&#xa;
                <mxCell id="4a63a70a29bb4ada-13" value="HabitCheckinID" style="shape=partialRectangle;top=0;left=0;right=0;bottom=1;align=left;verticalAlign=middle;fillColor=none;spacingLeft=34;spacingRight=4;overflow=hidden;rotatable=0;points=[[0,0.5],[1,0.5]];portConstraint=eastwest;dropTarget=0;fontStyle=5;" parent="4a63a70a29bb4ada-12" vertex="1">
                    &#xa;                    &#xa;                    &#xa;&#xa;&#xa;
                    <mxGeometry y="26" width="160" height="30" as="geometry"/>
                    &#xa;                    &#xa;                    &#xa;&#xa;&#xa;
                </mxCell>
                &#xa;                &#xa;                &#xa;&#xa;&#xa;
                <mxCell id="4a63a70a29bb4ada-14" value="PK" style="shape=partialRectangle;top=0;left=0;bottom=0;fillColor=none;align=left;verticalAlign=middle;spacingLeft=4;spacingRight=4;overflow=hidden;rotatable=0;points=[];portConstraint=eastwest;part=1;" parent="4a63a70a29bb4ada-13" vertex="1" connectable="0">
                    &#xa;                    &#xa;                    &#xa;&#xa;&#xa;
                    <mxGeometry width="30" height="30" as="geometry"/>
                    &#xa;                    &#xa;                    &#xa;&#xa;&#xa;
                </mxCell>
                &#xa;                &#xa;                &#xa;&#xa;&#xa;
                <mxCell id="4a63a70a29bb4ada-15" value="HabitID" style="shape=partialRectangle;top=0;left=0;right=0;bottom=0;align=left;verticalAlign=bottom;fillColor=none;spacingLeft=34;spacingRight=4;overflow=hidden;rotatable=0;points=[[0,0.5],[1,0.5]];portConstraint=eastwest;dropTarget=0;fontStyle=2" parent="4a63a70a29bb4ada-12" vertex="1">
                    &#xa;                    &#xa;                    &#xa;&#xa;&#xa;
                    <mxGeometry y="56" width="160" height="26" as="geometry"/>
                    &#xa;                    &#xa;                    &#xa;&#xa;&#xa;
                </mxCell>
                &#xa;                &#xa;                &#xa;&#xa;&#xa;
                <mxCell id="4a63a70a29bb4ada-25" value="FK" style="shape=partialRectangle;top=0;left=0;bottom=0;fillColor=none;align=left;verticalAlign=top;spacingLeft=4;spacingRight=4;overflow=hidden;rotatable=0;points=[];portConstraint=eastwest;part=1;fontStyle=2" parent="4a63a70a29bb4ada-15" vertex="1" connectable="0">
                    &#xa;                    &#xa;                    &#xa;&#xa;&#xa;
                    <mxGeometry width="30" height="26" as="geometry"/>
                    &#xa;                    &#xa;                    &#xa;&#xa;&#xa;
                </mxCell>
                &#xa;                &#xa;                &#xa;&#xa;&#xa;
                <mxCell id="5ecfb9fce94ea102-5" value="UserID" style="shape=partialRectangle;top=0;left=0;right=0;bottom=0;align=left;verticalAlign=bottom;fillColor=none;spacingLeft=34;spacingRight=4;overflow=hidden;rotatable=0;points=[[0,0.5],[1,0.5]];portConstraint=eastwest;dropTarget=0;fontStyle=2" parent="4a63a70a29bb4ada-12" vertex="1">
                    &#xa;                    &#xa;                    &#xa;&#xa;&#xa;
                    <mxGeometry y="82" width="160" height="26" as="geometry"/>
                    &#xa;                    &#xa;                    &#xa;&#xa;&#xa;
                </mxCell>
                &#xa;                &#xa;                &#xa;&#xa;&#xa;
                <mxCell id="5ecfb9fce94ea102-6" value="FK" style="shape=partialRectangle;top=0;left=0;bottom=0;fillColor=none;align=left;verticalAlign=top;spacingLeft=4;spacingRight=4;overflow=hidden;rotatable=0;points=[];portConstraint=eastwest;part=1;fontStyle=2" parent="5ecfb9fce94ea102-5" vertex="1" connectable="0">
                    &#xa;                    &#xa;                    &#xa;&#xa;&#xa;
                    <mxGeometry width="30" height="26" as="geometry"/>
                    &#xa;                    &#xa;                    &#xa;&#xa;&#xa;
                </mxCell>
                &#xa;                &#xa;                &#xa;&#xa;&#xa;
                <mxCell id="4f2698fda814bacb-1" value="CheckinDate" style="shape=partialRectangle;top=0;left=0;right=0;bottom=0;align=left;verticalAlign=top;fillColor=none;spacingLeft=34;spacingRight=4;overflow=hidden;rotatable=0;points=[[0,0.5],[1,0.5]];portConstraint=eastwest;dropTarget=0;" parent="4a63a70a29bb4ada-12" vertex="1">
                    &#xa;                    &#xa;                    &#xa;&#xa;&#xa;
                    <mxGeometry y="108" width="160" height="26" as="geometry"/>
                    &#xa;                    &#xa;                    &#xa;&#xa;&#xa;
                </mxCell>
                &#xa;                &#xa;                &#xa;&#xa;&#xa;
                <mxCell id="4f2698fda814bacb-2" value="" style="shape=partialRectangle;top=0;left=0;bottom=0;fillColor=none;align=left;verticalAlign=top;spacingLeft=4;spacingRight=4;overflow=hidden;rotatable=0;points=[];portConstraint=eastwest;part=1;" parent="4f2698fda814bacb-1" vertex="1" connectable="0">
                    &#xa;                    &#xa;                    &#xa;&#xa;&#xa;
                    <mxGeometry width="30" height="26" as="geometry"/>
                    &#xa;                    &#xa;                    &#xa;&#xa;&#xa;
                </mxCell>
                &#xa;                &#xa;                &#xa;&#xa;&#xa;
                <mxCell id="4a63a70a29bb4ada-26" value="Comments" style="swimlane;fontStyle=0;childLayout=stackLayout;horizontal=1;startSize=26;fillColor=#ffe6cc;horizontalStack=0;resizeParent=1;resizeParentMax=0;resizeLast=0;collapsible=1;marginBottom=0;swimlaneFillColor=#ffffff;align=center;strokeWidth=1;fontSize=13;strokeColor=#d79b00;" parent="1" vertex="1">
                    &#xa;                    &#xa;                    &#xa;&#xa;&#xa;
                    <mxGeometry x="655" y="264" width="160" height="196" as="geometry"/>
                    &#xa;                    &#xa;                    &#xa;&#xa;&#xa;
                </mxCell>
                &#xa;                &#xa;                &#xa;&#xa;&#xa;
                <mxCell id="4a63a70a29bb4ada-27" value="CommentID" style="shape=partialRectangle;top=0;left=0;right=0;bottom=1;align=left;verticalAlign=middle;fillColor=none;spacingLeft=34;spacingRight=4;overflow=hidden;rotatable=0;points=[[0,0.5],[1,0.5]];portConstraint=eastwest;dropTarget=0;fontStyle=5;" parent="4a63a70a29bb4ada-26" vertex="1">
                    &#xa;                    &#xa;                    &#xa;&#xa;&#xa;
                    <mxGeometry y="26" width="160" height="30" as="geometry"/>
                    &#xa;                    &#xa;                    &#xa;&#xa;&#xa;
                </mxCell>
                &#xa;                &#xa;                &#xa;&#xa;&#xa;
                <mxCell id="4a63a70a29bb4ada-28" value="PK" style="shape=partialRectangle;top=0;left=0;bottom=0;fillColor=none;align=left;verticalAlign=middle;spacingLeft=4;spacingRight=4;overflow=hidden;rotatable=0;points=[];portConstraint=eastwest;part=1;fontStyle=1" parent="4a63a70a29bb4ada-27" vertex="1" connectable="0">
                    &#xa;                    &#xa;                    &#xa;&#xa;&#xa;
                    <mxGeometry width="30" height="30" as="geometry"/>
                    &#xa;                    &#xa;                    &#xa;&#xa;&#xa;
                </mxCell>
                &#xa;                &#xa;                &#xa;&#xa;&#xa;
                <mxCell id="4a63a70a29bb4ada-51" value="HabitCheckinID&#10;" style="shape=partialRectangle;top=0;left=0;right=0;bottom=0;align=left;verticalAlign=top;fillColor=none;spacingLeft=34;spacingRight=4;overflow=hidden;rotatable=0;points=[[0,0.5],[1,0.5]];portConstraint=eastwest;dropTarget=0;fontStyle=2" parent="4a63a70a29bb4ada-26" vertex="1">
                    &#xa;                    &#xa;                    &#xa;&#xa;&#xa;
                    <mxGeometry y="56" width="160" height="26" as="geometry"/>
                    &#xa;                    &#xa;                    &#xa;&#xa;&#xa;
                </mxCell>
                &#xa;                &#xa;                &#xa;&#xa;&#xa;
                <mxCell id="4a63a70a29bb4ada-52" value="FK" style="shape=partialRectangle;top=0;left=0;bottom=0;fillColor=none;align=left;verticalAlign=top;spacingLeft=4;spacingRight=4;overflow=hidden;rotatable=0;points=[];portConstraint=eastwest;part=1;fontStyle=2" parent="4a63a70a29bb4ada-51" vertex="1" connectable="0">
                    &#xa;                    &#xa;                    &#xa;&#xa;&#xa;
                    <mxGeometry width="30" height="26" as="geometry"/>
                    &#xa;                    &#xa;                    &#xa;&#xa;&#xa;
                </mxCell>
                &#xa;                &#xa;                &#xa;&#xa;&#xa;
                <mxCell id="5ecfb9fce94ea102-3" value="UserID&#10;" style="shape=partialRectangle;top=0;left=0;right=0;bottom=0;align=left;verticalAlign=top;fillColor=none;spacingLeft=34;spacingRight=4;overflow=hidden;rotatable=0;points=[[0,0.5],[1,0.5]];portConstraint=eastwest;dropTarget=0;fontStyle=2" parent="4a63a70a29bb4ada-26" vertex="1">
                    &#xa;                    &#xa;                    &#xa;&#xa;&#xa;
                    <mxGeometry y="82" width="160" height="26" as="geometry"/>
                    &#xa;                    &#xa;                    &#xa;&#xa;&#xa;
                </mxCell>
                &#xa;                &#xa;                &#xa;&#xa;&#xa;
                <mxCell id="5ecfb9fce94ea102-4" value="FK" style="shape=partialRectangle;top=0;left=0;bottom=0;fillColor=none;align=left;verticalAlign=top;spacingLeft=4;spacingRight=4;overflow=hidden;rotatable=0;points=[];portConstraint=eastwest;part=1;fontStyle=2" parent="5ecfb9fce94ea102-3" vertex="1" connectable="0">
                    &#xa;                    &#xa;                    &#xa;&#xa;&#xa;
                    <mxGeometry width="30" height="26" as="geometry"/>
                    &#xa;                    &#xa;                    &#xa;&#xa;&#xa;
                </mxCell>
                &#xa;                &#xa;                &#xa;&#xa;&#xa;
                <mxCell id="113bda5a66023eaa-7" value="CoachID&#10;" style="shape=partialRectangle;top=0;left=0;right=0;bottom=0;align=left;verticalAlign=top;fillColor=none;spacingLeft=34;spacingRight=4;overflow=hidden;rotatable=0;points=[[0,0.5],[1,0.5]];portConstraint=eastwest;dropTarget=0;fontStyle=2" parent="4a63a70a29bb4ada-26" vertex="1">
                    &#xa;                    &#xa;                    &#xa;&#xa;&#xa;
                    <mxGeometry y="108" width="160" height="26" as="geometry"/>
                    &#xa;                    &#xa;                    &#xa;&#xa;&#xa;
                </mxCell>
                &#xa;                &#xa;                &#xa;&#xa;&#xa;
                <mxCell id="113bda5a66023eaa-8" value="FK" style="shape=partialRectangle;top=0;left=0;bottom=0;fillColor=none;align=left;verticalAlign=top;spacingLeft=4;spacingRight=4;overflow=hidden;rotatable=0;points=[];portConstraint=eastwest;part=1;fontStyle=2" parent="113bda5a66023eaa-7" vertex="1" connectable="0">
                    &#xa;                    &#xa;                    &#xa;&#xa;&#xa;
                    <mxGeometry width="30" height="26" as="geometry"/>
                    &#xa;                    &#xa;                    &#xa;&#xa;&#xa;
                </mxCell>
                &#xa;                &#xa;                &#xa;&#xa;&#xa;
                <mxCell id="4a63a70a29bb4ada-53" value="CommentDate" style="shape=partialRectangle;top=0;left=0;right=0;bottom=0;align=left;verticalAlign=top;fillColor=none;spacingLeft=34;spacingRight=4;overflow=hidden;rotatable=0;points=[[0,0.5],[1,0.5]];portConstraint=eastwest;dropTarget=0;fontStyle=0" parent="4a63a70a29bb4ada-26" vertex="1">
                    &#xa;                    &#xa;                    &#xa;&#xa;&#xa;
                    <mxGeometry y="134" width="160" height="26" as="geometry"/>
                    &#xa;                    &#xa;                    &#xa;&#xa;&#xa;
                </mxCell>
                &#xa;                &#xa;                &#xa;&#xa;&#xa;
                <mxCell id="4a63a70a29bb4ada-54" value="" style="shape=partialRectangle;top=0;left=0;bottom=0;fillColor=none;align=left;verticalAlign=top;spacingLeft=4;spacingRight=4;overflow=hidden;rotatable=0;points=[];portConstraint=eastwest;part=1;" parent="4a63a70a29bb4ada-53" vertex="1" connectable="0">
                    &#xa;                    &#xa;                    &#xa;&#xa;&#xa;
                    <mxGeometry width="30" height="26" as="geometry"/>
                    &#xa;                    &#xa;                    &#xa;&#xa;&#xa;
                </mxCell>
                &#xa;                &#xa;                &#xa;&#xa;&#xa;
                <mxCell id="4a63a70a29bb4ada-35" value="CommentText" style="shape=partialRectangle;top=0;left=0;right=0;bottom=0;align=left;verticalAlign=top;fillColor=none;spacingLeft=34;spacingRight=4;overflow=hidden;rotatable=0;points=[[0,0.5],[1,0.5]];portConstraint=eastwest;dropTarget=0;fontStyle=0" parent="4a63a70a29bb4ada-26" vertex="1">
                    &#xa;                    &#xa;                    &#xa;&#xa;&#xa;
                    <mxGeometry y="160" width="160" height="26" as="geometry"/>
                    &#xa;                    &#xa;                    &#xa;&#xa;&#xa;
                </mxCell>
                &#xa;                &#xa;                &#xa;&#xa;&#xa;
                <mxCell id="4a63a70a29bb4ada-42" value="" style="shape=partialRectangle;top=0;left=0;bottom=0;fillColor=none;align=left;verticalAlign=top;spacingLeft=4;spacingRight=4;overflow=hidden;rotatable=0;points=[];portConstraint=eastwest;part=1;" parent="4a63a70a29bb4ada-35" vertex="1" connectable="0">
                    &#xa;                    &#xa;                    &#xa;&#xa;&#xa;
                    <mxGeometry width="30" height="26" as="geometry"/>
                    &#xa;                    &#xa;                    &#xa;&#xa;&#xa;
                </mxCell>
                &#xa;                &#xa;                &#xa;&#xa;&#xa;
                <mxCell id="4a63a70a29bb4ada-46" value="" style="shape=partialRectangle;top=0;left=0;right=0;bottom=0;align=left;verticalAlign=top;fillColor=none;spacingLeft=34;spacingRight=4;overflow=hidden;rotatable=0;points=[[0,0.5],[1,0.5]];portConstraint=eastwest;dropTarget=0;" parent="4a63a70a29bb4ada-26" vertex="1">
                    &#xa;                    &#xa;                    &#xa;&#xa;&#xa;
                    <mxGeometry y="186" width="160" height="10" as="geometry"/>
                    &#xa;                    &#xa;                    &#xa;&#xa;&#xa;
                </mxCell>
                &#xa;                &#xa;                &#xa;&#xa;&#xa;
                <mxCell id="4a63a70a29bb4ada-47" value="" style="shape=partialRectangle;top=0;left=0;bottom=0;fillColor=none;align=left;verticalAlign=top;spacingLeft=4;spacingRight=4;overflow=hidden;rotatable=0;points=[];portConstraint=eastwest;part=1;" parent="4a63a70a29bb4ada-46" vertex="1" connectable="0">
                    &#xa;                    &#xa;                    &#xa;&#xa;&#xa;
                    <mxGeometry width="30" height="10" as="geometry"/>
                    &#xa;                    &#xa;                    &#xa;&#xa;&#xa;
                </mxCell>
                &#xa;                &#xa;                &#xa;&#xa;&#xa;
                <mxCell id="4f2698fda814bacb-14" value="UserHabits" style="swimlane;fontStyle=0;childLayout=stackLayout;horizontal=1;startSize=26;fillColor=#ffe6cc;horizontalStack=0;resizeParent=1;resizeParentMax=0;resizeLast=0;collapsible=1;marginBottom=0;swimlaneFillColor=#ffffff;align=center;fontSize=13;dashed=1;strokeColor=#d79b00;strokeWidth=1;" parent="1" vertex="1">
                    &#xa;                    &#xa;                    &#xa;&#xa;&#xa;
                    <mxGeometry x="258" y="144" width="160" height="116" as="geometry"/>
                    &#xa;                    &#xa;                    &#xa;&#xa;&#xa;
                </mxCell>
                &#xa;                &#xa;                &#xa;&#xa;&#xa;
                <mxCell id="4f2698fda814bacb-15" value="UserHabitID" style="shape=partialRectangle;top=0;left=0;right=0;bottom=1;align=left;verticalAlign=middle;fillColor=none;spacingLeft=60;spacingRight=4;overflow=hidden;rotatable=0;points=[[0,0.5],[1,0.5]];portConstraint=eastwest;dropTarget=0;fontStyle=5;fontSize=12;strokeColor=#000000;perimeterSpacing=0;" parent="4f2698fda814bacb-14" vertex="1">
                    &#xa;                    &#xa;                    &#xa;&#xa;&#xa;
                    <mxGeometry y="26" width="160" height="30" as="geometry"/>
                    &#xa;                    &#xa;                    &#xa;&#xa;&#xa;
                </mxCell>
                &#xa;                &#xa;                &#xa;&#xa;&#xa;
                <mxCell id="4f2698fda814bacb-16" value="PK" style="shape=partialRectangle;fontStyle=1;top=0;left=0;bottom=0;fillColor=none;align=left;verticalAlign=middle;spacingLeft=4;spacingRight=4;overflow=hidden;rotatable=0;points=[];portConstraint=eastwest;part=1;fontSize=12;" parent="4f2698fda814bacb-15" vertex="1" connectable="0">
                    &#xa;                    &#xa;                    &#xa;&#xa;&#xa;
                    <mxGeometry width="56" height="30" as="geometry"/>
                    &#xa;                    &#xa;                    &#xa;&#xa;&#xa;
                </mxCell>
                &#xa;                &#xa;                &#xa;&#xa;&#xa;
                <mxCell id="113bda5a66023eaa-1" value="UserID" style="shape=partialRectangle;top=0;left=0;right=0;bottom=0;align=left;verticalAlign=middle;fillColor=none;spacingLeft=60;spacingRight=4;overflow=hidden;rotatable=0;points=[[0,0.5],[1,0.5]];portConstraint=eastwest;dropTarget=0;fontStyle=2;fontSize=12;strokeColor=none;" parent="4f2698fda814bacb-14" vertex="1">
                    &#xa;                    &#xa;                    &#xa;&#xa;&#xa;
                    <mxGeometry y="56" width="160" height="30" as="geometry"/>
                    &#xa;                    &#xa;                    &#xa;&#xa;&#xa;
                </mxCell>
                &#xa;                &#xa;                &#xa;&#xa;&#xa;
                <mxCell id="113bda5a66023eaa-2" value="FK1" style="shape=partialRectangle;fontStyle=2;top=0;left=0;bottom=0;fillColor=none;align=left;verticalAlign=middle;spacingLeft=4;spacingRight=4;overflow=hidden;rotatable=0;points=[];portConstraint=eastwest;part=1;fontSize=12;" parent="113bda5a66023eaa-1" vertex="1" connectable="0">
                    &#xa;                    &#xa;                    &#xa;&#xa;&#xa;
                    <mxGeometry width="56" height="30" as="geometry"/>
                    &#xa;                    &#xa;                    &#xa;&#xa;&#xa;
                </mxCell>
                &#xa;                &#xa;                &#xa;&#xa;&#xa;
                <mxCell id="4f2698fda814bacb-17" value="HabitID" style="shape=partialRectangle;top=0;left=0;right=0;bottom=1;align=left;verticalAlign=middle;fillColor=none;spacingLeft=60;spacingRight=4;overflow=hidden;rotatable=0;points=[[0,0.5],[1,0.5]];portConstraint=eastwest;dropTarget=0;fontStyle=2;fontSize=12;dashed=1;strokeColor=#D79B00;" parent="4f2698fda814bacb-14" vertex="1">
                    &#xa;                    &#xa;                    &#xa;&#xa;&#xa;
                    <mxGeometry y="86" width="160" height="30" as="geometry"/>
                    &#xa;                    &#xa;                    &#xa;&#xa;&#xa;
                </mxCell>
                &#xa;                &#xa;                &#xa;&#xa;&#xa;
                <mxCell id="4f2698fda814bacb-18" value="FK2" style="shape=partialRectangle;fontStyle=2;top=0;left=0;bottom=0;fillColor=none;align=left;verticalAlign=middle;spacingLeft=4;spacingRight=4;overflow=hidden;rotatable=0;points=[];portConstraint=eastwest;part=1;fontSize=12;" parent="4f2698fda814bacb-17" vertex="1" connectable="0">
                    &#xa;                    &#xa;                    &#xa;&#xa;&#xa;
                    <mxGeometry width="56" height="30" as="geometry"/>
                    &#xa;                    &#xa;                    &#xa;&#xa;&#xa;
                </mxCell>
                &#xa;                &#xa;                &#xa;&#xa;&#xa;
                <mxCell id="4f2698fda814bacb-22" value="" style="endArrow=none;dashed=1;html=1;strokeColor=#000066;fontSize=13;rounded=0;edgeStyle=orthogonalEdgeStyle;entryX=0.5;entryY=0;" parent="1" source="4a63a70a29bb4ada-1" target="4f2698fda814bacb-14" edge="1">
                    &#xa;                    &#xa;                    &#xa;&#xa;&#xa;
                    <mxGeometry width="50" height="50" relative="1" as="geometry">
                        &#xa;                        &#xa;                        &#xa;&#xa;&#xa;
                        <mxPoint x="110" y="630" as="sourcePoint"/>
                        &#xa;                        &#xa;                        &#xa;&#xa;&#xa;
                        <mxPoint x="160" y="580" as="targetPoint"/>
                        &#xa;                        &#xa;                        &#xa;&#xa;&#xa;
                    </mxGeometry>
                    &#xa;                    &#xa;                    &#xa;&#xa;&#xa;
                </mxCell>
                &#xa;                &#xa;                &#xa;&#xa;&#xa;
                <mxCell id="4f2698fda814bacb-24" value="" style="endArrow=none;dashed=1;html=1;strokeColor=#000066;fontSize=13;rounded=0;edgeStyle=orthogonalEdgeStyle;entryX=0.5;entryY=0;" parent="1" source="4a63a70a29bb4ada-32" target="4f2698fda814bacb-14" edge="1">
                    &#xa;                    &#xa;                    &#xa;&#xa;&#xa;
                    <mxGeometry width="50" height="50" relative="1" as="geometry">
                        &#xa;                        &#xa;                        &#xa;&#xa;&#xa;
                        <mxPoint x="250" y="136.33333333333337" as="sourcePoint"/>
                        &#xa;                        &#xa;                        &#xa;&#xa;&#xa;
                        <mxPoint x="348.33333333333337" y="161.66666666666663" as="targetPoint"/>
                        &#xa;                        &#xa;                        &#xa;&#xa;&#xa;
                    </mxGeometry>
                    &#xa;                    &#xa;                    &#xa;&#xa;&#xa;
                </mxCell>
                &#xa;                &#xa;                &#xa;&#xa;&#xa;
                <mxCell id="5ecfb9fce94ea102-1" style="edgeStyle=none;rounded=0;html=1;startArrow=ERmandOne;startFill=0;endArrow=ERzeroToMany;endFill=1;jettySize=auto;orthogonalLoop=1;strokeColor=#000066;fontSize=13;exitX=1;exitY=0.5;entryX=0;entryY=0.5;" parent="1" source="4a63a70a29bb4ada-33" target="4a63a70a29bb4ada-13" edge="1">
                    &#xa;                    &#xa;                    &#xa;&#xa;&#xa;
                    <mxGeometry relative="1" as="geometry">
                        &#xa;                        &#xa;                        &#xa;&#xa;&#xa;
                        <mxPoint x="589" y="99" as="sourcePoint"/>
                        &#xa;                        &#xa;                        &#xa;&#xa;&#xa;
                        <mxPoint x="725" y="99" as="targetPoint"/>
                        &#xa;                        &#xa;                        &#xa;&#xa;&#xa;
                    </mxGeometry>
                    &#xa;                    &#xa;                    &#xa;&#xa;&#xa;
                </mxCell>
                &#xa;                &#xa;                &#xa;&#xa;&#xa;
                <mxCell id="5ecfb9fce94ea102-2" style="edgeStyle=orthogonalEdgeStyle;rounded=0;html=1;exitX=0.5;exitY=0;entryX=1;entryY=0.5;startArrow=none;startFill=0;endArrow=none;endFill=0;jettySize=auto;orthogonalLoop=1;strokeColor=none;fontSize=13;dashed=1;" parent="1" target="4a63a70a29bb4ada-33" edge="1">
                    &#xa;                    &#xa;                    &#xa;&#xa;&#xa;
                    <mxGeometry relative="1" as="geometry">
                        &#xa;                        &#xa;                        &#xa;&#xa;&#xa;
                        <mxPoint x="633" y="174" as="sourcePoint"/>
                        &#xa;                        &#xa;                        &#xa;&#xa;&#xa;
                    </mxGeometry>
                    &#xa;                    &#xa;                    &#xa;&#xa;&#xa;
                </mxCell>
                &#xa;                &#xa;                &#xa;&#xa;&#xa;
            </root>
            &#xa;            &#xa;            &#xa;&#xa;&#xa;
        </mxGraphModel>
        &#xa;        &#xa;        &#xa;&#xa;&#xa;
    </diagram>
</mxfile>